<?xml version="1.0" encoding="UTF-8"?>
<svg version="1.1" xmlns="http://www.w3.org/2000/svg" width="480" height="360">
<path d="M0 0 C158.4 0 316.8 0 480 0 C480 118.8 480 237.6 480 360 C321.6 360 163.2 360 0 360 C0 241.2 0 122.4 0 0 Z " fill="#252F44" transform="translate(0,0)"/>
<path d="M0 0 C0.83096191 -0.00945648 1.66192383 -0.01891296 2.51806641 -0.02865601 C3.41187012 -0.02258331 4.30567383 -0.01651062 5.2265625 -0.01025391 C6.14743652 -0.01312408 7.06831055 -0.01599426 8.01708984 -0.01895142 C9.96387344 -0.02099272 11.91067752 -0.01545824 13.85742188 -0.00292969 C16.84030949 0.01312303 19.82184211 -0.00277613 22.8046875 -0.02197266 C24.6953155 -0.01999024 26.58594265 -0.01614659 28.4765625 -0.01025391 C29.37036621 -0.0163266 30.26416992 -0.02239929 31.18505859 -0.02865601 C32.43150146 -0.01447128 32.43150146 -0.01447128 33.703125 0 C34.79874756 0.00358017 34.79874756 0.00358017 35.91650391 0.00723267 C38.43674892 0.50338802 39.3213591 1.3513183 40.8515625 3.38818359 C41.16227131 5.96471995 41.29587004 8.29499982 41.28515625 10.87255859 C41.2903981 11.60637756 41.29563995 12.34019653 41.30104065 13.09625244 C41.30746159 14.64960466 41.30612285 16.2030055 41.29760742 17.75634766 C41.28914102 20.11629692 41.31778145 22.47378875 41.34960938 24.83349609 C41.35122281 26.34651621 41.35064114 27.85954056 41.34765625 29.37255859 C41.35889023 30.07072693 41.37012421 30.76889526 41.38169861 31.48822021 C41.30536779 36.94388678 39.81858326 39.97508406 36.8515625 44.38818359 C33.66201949 47.11608222 29.91198875 48.45116215 25.8515625 49.38818359 C24.41187844 52.26755172 24.5487395 54.17825978 24.8515625 57.38818359 C25.4909375 58.33693359 26.1303125 59.28568359 26.7890625 60.26318359 C29.63780459 64.68123273 29.41289908 69.7003336 29.52319336 74.79003906 C29.62303973 78.51852437 29.72817959 80.20310923 31.8515625 83.38818359 C34.90285973 83.8990522 34.90285973 83.8990522 38.3515625 83.95068359 C44.64375538 84.18037648 44.64375538 84.18037648 46.8515625 86.38818359 C47.15234375 88.26318359 47.15234375 88.26318359 47.1640625 90.38818359 C47.18082031 91.08943359 47.19757813 91.79068359 47.21484375 92.51318359 C47.09496094 93.13193359 46.97507812 93.75068359 46.8515625 94.38818359 C43.8515625 96.38818359 43.8515625 96.38818359 40.9765625 96.20068359 C37.78837659 95.37175526 35.62801338 94.11408549 32.8515625 92.38818359 C31.8615625 92.38818359 30.8715625 92.38818359 29.8515625 92.38818359 C29.8515625 95.35818359 29.8515625 98.32818359 29.8515625 101.38818359 C30.64852539 101.39229248 31.44548828 101.39640137 32.26660156 101.40063477 C35.87900873 101.43353705 39.48972189 101.50418015 43.1015625 101.57568359 C44.35582031 101.58148438 45.61007812 101.58728516 46.90234375 101.59326172 C48.10761719 101.62226563 49.31289063 101.65126953 50.5546875 101.68115234 C51.66489258 101.69686279 52.77509766 101.71257324 53.91894531 101.72875977 C57.73720486 102.58732778 58.66171789 104.25275922 60.8515625 107.38818359 C63.71763425 108.10071349 65.85253027 107.68317037 68.8515625 107.38818359 C70.73424235 105.50550375 70.25776787 102.81756317 70.47265625 100.29833984 C70.8515625 98.38818359 70.8515625 98.38818359 72.8515625 96.38818359 C75.1970279 96.11241372 77.55513561 95.93847054 79.9140625 95.82568359 C84.20382615 96.00001461 84.20382615 96.00001461 87.8515625 94.38818359 C87.95037047 92.91165695 87.98235495 91.43051124 87.984375 89.95068359 C87.98630859 88.60876953 87.98630859 88.60876953 87.98828125 87.23974609 C87.98441406 86.29873047 87.98054687 85.35771484 87.9765625 84.38818359 C87.98042969 83.44716797 87.98429688 82.50615234 87.98828125 81.53662109 C87.98699219 80.64201172 87.98570312 79.74740234 87.984375 78.82568359 C87.98268311 77.58625 87.98268311 77.58625 87.98095703 76.32177734 C88.06421057 74.3813932 88.06421057 74.3813932 86.8515625 73.38818359 C84.50142894 73.25307039 82.17641977 73.17775037 79.82421875 73.14208984 C78.37824908 73.10915475 76.93228569 73.07594304 75.48632812 73.04248047 C73.1973906 72.99501459 70.90847917 72.95058795 68.61938477 72.91137695 C66.41655705 72.87173982 64.21425749 72.82017804 62.01171875 72.76708984 C60.98196678 72.75446861 60.98196678 72.75446861 59.93141174 72.74159241 C55.07823602 72.61485711 55.07823602 72.61485711 52.8515625 70.38818359 C52.59759521 68.03515625 52.59759521 68.03515625 52.59277344 65.05224609 C52.58646912 63.93769043 52.58016479 62.82313477 52.57366943 61.67480469 C52.5777179 60.46646973 52.58176636 59.25813477 52.5859375 58.01318359 C52.58402405 56.77777832 52.5821106 55.54237305 52.58013916 54.26953125 C52.5784264 50.98226952 52.58649551 47.69519572 52.59765625 44.40795898 C52.60155853 42.3902383 52.59767079 40.37269158 52.59082031 38.35498047 C52.57850246 34.49096531 52.57995272 30.62720932 52.5859375 26.76318359 C52.58188904 25.55484863 52.57784058 24.34651367 52.57366943 23.1015625 C52.58312592 21.429729 52.58312592 21.429729 52.59277344 19.72412109 C52.59436462 18.73976074 52.59595581 17.75540039 52.59759521 16.74121094 C52.8515625 14.38818359 52.8515625 14.38818359 54.8515625 12.38818359 C57.90926429 12.18921032 60.87643464 12.11555981 63.93530273 12.12939453 C64.87687225 12.12588989 65.81844177 12.12238525 66.7885437 12.11877441 C69.91248874 12.10994545 73.03620875 12.11581085 76.16015625 12.12255859 C78.32487532 12.12121217 80.4895941 12.11927182 82.65431213 12.11676025 C87.19640983 12.11380732 91.73842899 12.11811168 96.28051758 12.12744141 C102.10944346 12.1388292 107.93818505 12.13228174 113.76710415 12.12029648 C118.23913466 12.11307668 122.71112134 12.11536649 127.18315315 12.12055206 C129.33260177 12.12188858 131.48205433 12.12024079 133.63149834 12.11559296 C136.63391567 12.11052655 139.63603281 12.11824 142.63842773 12.12939453 C143.97806831 12.12332184 143.97806831 12.12332184 145.34477234 12.11712646 C146.57088226 12.12558594 146.57088226 12.12558594 147.82176208 12.13421631 C148.53171042 12.13497036 149.24165876 12.13572441 149.97312069 12.13650131 C151.8515625 12.38818359 151.8515625 12.38818359 154.8515625 14.38818359 C155.23251343 16.74121094 155.23251343 16.74121094 155.23974609 19.72412109 C155.24920258 20.83867676 155.25865906 21.95323242 155.2684021 23.1015625 C155.25929306 24.91406494 155.25929306 24.91406494 155.25 26.76318359 C155.25430527 28.6162915 155.25430527 28.6162915 155.25869751 30.50683594 C155.26126673 33.79418637 155.24916328 37.081114 155.23242188 40.3684082 C155.22656824 42.38620536 155.23239973 44.4036111 155.24267578 46.42138672 C155.26115305 50.28550545 155.25897744 54.1490411 155.25 58.01318359 C155.25607269 59.22151855 155.26214539 60.42985352 155.2684021 61.67480469 C155.25421738 63.34663818 155.25421738 63.34663818 155.23974609 65.05224609 C155.23735931 66.03660645 155.23497253 67.0209668 155.23251343 68.03515625 C155.10679962 68.81165527 154.98108582 69.5881543 154.8515625 70.38818359 C151.17087857 72.84197288 149.17102531 72.69464573 144.77734375 72.80224609 C143.75159492 72.83129532 143.75159492 72.83129532 142.7051239 72.8609314 C140.52489625 72.92062357 138.34461548 72.96706991 136.1640625 73.01318359 C134.684222 73.05137303 133.2044035 73.09042533 131.72460938 73.13037109 C128.100462 73.22631561 124.47614993 73.3103851 120.8515625 73.38818359 C119.7161971 75.65891438 119.72263838 76.93101638 119.71875 79.45068359 C119.71681641 80.64564453 119.71681641 80.64564453 119.71484375 81.86474609 C119.71871094 82.69748047 119.72257813 83.53021484 119.7265625 84.38818359 C119.72269531 85.22091797 119.71882812 86.05365234 119.71484375 86.91162109 C119.71613281 87.70826172 119.71742188 88.50490234 119.71875 89.32568359 C119.72044189 90.42203125 119.72044189 90.42203125 119.72216797 91.54052734 C119.73954455 93.48384412 119.73954455 93.48384412 120.8515625 95.38818359 C124.12711858 95.85819392 124.12711858 95.85819392 127.9140625 96.01318359 C129.20441406 96.08794922 130.49476563 96.16271484 131.82421875 96.23974609 C133.32275391 96.31322266 133.32275391 96.31322266 134.8515625 96.38818359 C134.8515625 97.04818359 134.8515625 97.70818359 134.8515625 98.38818359 C135.5115625 98.38818359 136.1715625 98.38818359 136.8515625 98.38818359 C137.07942708 100.43896484 137.30729167 102.48974609 137.53515625 104.54052734 C137.67042864 106.39958588 137.67042864 106.39958588 138.8515625 107.38818359 C141.66132768 107.54835525 144.44929846 107.64768894 147.26171875 107.70458984 C148.10375351 107.72537094 148.94578827 107.74615204 149.81333923 107.76756287 C152.51349429 107.83315171 155.21374967 107.89198635 157.9140625 107.95068359 C159.74024491 107.99385996 161.56641704 108.03747395 163.39257812 108.08154297 C167.87880242 108.18884254 172.365128 108.29008325 176.8515625 108.38818359 C177.1815625 110.03818359 177.5115625 111.68818359 177.8515625 113.38818359 C177.1915625 113.38818359 176.5315625 113.38818359 175.8515625 113.38818359 C174.07932709 117.21420395 173.59745612 120.22860174 173.58032227 124.43188477 C173.57013565 125.62629684 173.55994904 126.82070892 173.54945374 128.05131531 C173.54731369 129.33166153 173.54517365 130.61200775 173.54296875 131.93115234 C173.53186473 133.26444092 173.51947033 134.59771931 173.50584412 135.9309845 C173.4505479 141.57962931 173.41965437 147.22834316 173.39526367 152.87719727 C173.38248481 155.66909646 173.36184124 158.46073879 173.33299255 161.2525177 C173.30662152 163.88221117 173.29285456 166.51206579 173.2926178 169.14189148 C173.27927902 170.32684708 173.26594025 171.51180267 173.25219727 172.73266602 C173.24712662 173.77903732 173.24205597 174.82540863 173.23683167 175.90348816 C173.10969284 176.72343765 172.98255402 177.54338715 172.8515625 178.38818359 C169.21051886 180.81554602 167.47320834 180.65363935 163.13305664 180.68684387 C162.44657327 180.69475297 161.76008989 180.70266207 161.05280399 180.71081084 C158.74742297 180.73488284 156.44220105 180.74474406 154.13671875 180.75463867 C152.48598528 180.76884478 150.83525875 180.78387946 149.18453979 180.79968262 C144.69709059 180.83987662 140.20964775 180.8673208 135.72208786 180.89169526 C131.97928576 180.91304768 128.23653548 180.94027049 124.49377155 180.96740454 C115.66678837 181.03118104 106.83978374 181.08434349 98.01269531 181.13110352 C88.89724764 181.17958851 79.78206408 181.24645161 70.66680622 181.32226831 C62.84771002 181.38662751 55.02859402 181.439355 47.20935345 181.48275679 C42.53614252 181.50883167 37.86307037 181.53943577 33.18997192 181.58130836 C28.7971282 181.62018398 24.40444176 181.64457776 20.01144791 181.65769196 C18.39689066 181.66496177 16.78234742 181.67740953 15.16787338 181.69534111 C12.96840167 181.7189603 10.7696487 181.72409181 8.57006836 181.72444153 C6.72172646 181.73575466 6.72172646 181.73575466 4.83604431 181.74729633 C1.8515625 181.38818359 1.8515625 181.38818359 -0.04384422 180.03640461 C-1.73252758 177.51663244 -1.54266666 175.37921696 -1.56494141 172.37207031 C-1.58150787 171.13423798 -1.59807434 169.89640564 -1.61514282 168.62106323 C-1.61859566 167.2699996 -1.62187732 165.91893553 -1.625 164.56787109 C-1.63930788 163.18448359 -1.65506451 161.80111037 -1.67221069 160.41775513 C-1.7140713 156.77841016 -1.73906516 153.13915377 -1.75970459 149.49963379 C-1.79552117 143.66678366 -1.8563731 137.83415176 -1.91819382 132.00152969 C-1.93733789 129.96015736 -1.94902833 127.91884346 -1.95962524 125.87741089 C-1.96988739 124.64588287 -1.98014954 123.41435486 -1.99072266 122.14550781 C-1.99721832 121.0553537 -2.00371399 119.96519958 -2.01040649 118.8420105 C-1.8720317 116.44249679 -1.8720317 116.44249679 -3.1484375 115.38818359 C-5.95820268 115.22801193 -8.74617346 115.12867825 -11.55859375 115.07177734 C-12.40062851 115.05099625 -13.24266327 115.03021515 -14.11021423 115.00880432 C-16.81036929 114.94321547 -19.51062467 114.88438084 -22.2109375 114.82568359 C-24.03711991 114.78250723 -25.86329204 114.73889324 -27.68945312 114.69482422 C-32.17567742 114.58752465 -36.662003 114.48628393 -41.1484375 114.38818359 C-42.2734375 110.63818359 -42.2734375 110.63818359 -41.1484375 108.38818359 C-38.82460248 108.1064186 -36.48666926 107.93646675 -34.1484375 107.82568359 C-29.82703615 108.00402313 -29.82703615 108.00402313 -26.1484375 106.38818359 C-26.0498906 103.52631295 -26.01129344 100.68418728 -26.0078125 97.82177734 C-25.98947013 96.03856159 -25.96989852 94.25535814 -25.94921875 92.47216797 C-25.92035295 89.65677402 -25.89844037 86.8421624 -25.89794922 84.02661133 C-25.89459374 81.31179163 -25.85990399 78.59878059 -25.8203125 75.88427734 C-25.8273822 75.05375351 -25.8344519 74.22322968 -25.84173584 73.36753845 C-25.72762152 67.82707839 -24.4217714 64.82777469 -21.28018188 60.313797 C-19.43565642 57.17541786 -19.52001979 54.25835773 -19.51171875 50.67724609 C-19.50134079 49.98303558 -19.49096283 49.28882507 -19.48027039 48.57357788 C-19.45088361 46.38625837 -19.4539279 44.20066254 -19.4609375 42.01318359 C-19.45203841 39.80476516 -19.43613192 37.59679543 -19.4094696 35.38851929 C-19.38779616 33.40104516 -19.38731356 31.41337345 -19.38793945 29.42578125 C-19.1484375 26.38818359 -19.1484375 26.38818359 -17.1484375 24.38818359 C-15.23828125 24.00927734 -15.23828125 24.00927734 -13.0859375 23.82568359 C-9.38107133 23.82904911 -9.38107133 23.82904911 -8.1484375 22.38818359 C-8.02824937 21.00881088 -7.96900599 19.62398655 -7.9375 18.23974609 C-7.89496094 16.97904297 -7.89496094 16.97904297 -7.8515625 15.69287109 C-7.79971291 13.91443006 -7.75537276 12.13575334 -7.71875 10.35693359 C-7.67234375 9.09236328 -7.67234375 9.09236328 -7.625 7.80224609 C-7.60518066 7.0283252 -7.58536133 6.2544043 -7.56494141 5.45703125 C-6.70571488 1.18910303 -4.09368916 0.01337696 0 0 Z " fill="#485768" transform="translate(247.1484375,149.61181640625)"/>
<path d="M0 0 C0.83096191 -0.00945648 1.66192383 -0.01891296 2.51806641 -0.02865601 C3.85877197 -0.01954697 3.85877197 -0.01954697 5.2265625 -0.01025391 C6.14743652 -0.01312408 7.06831055 -0.01599426 8.01708984 -0.01895142 C9.96387344 -0.02099272 11.91067752 -0.01545824 13.85742188 -0.00292969 C16.84030949 0.01312303 19.82184211 -0.00277613 22.8046875 -0.02197266 C24.6953155 -0.01999024 26.58594265 -0.01614659 28.4765625 -0.01025391 C29.37036621 -0.0163266 30.26416992 -0.02239929 31.18505859 -0.02865601 C32.43150146 -0.01447128 32.43150146 -0.01447128 33.703125 0 C34.79874756 0.00358017 34.79874756 0.00358017 35.91650391 0.00723267 C38.43674892 0.50338802 39.3213591 1.3513183 40.8515625 3.38818359 C41.16227131 5.96471995 41.29587004 8.29499982 41.28515625 10.87255859 C41.2903981 11.60637756 41.29563995 12.34019653 41.30104065 13.09625244 C41.30746159 14.64960466 41.30612285 16.2030055 41.29760742 17.75634766 C41.28914102 20.11629692 41.31778145 22.47378875 41.34960938 24.83349609 C41.35122281 26.34651621 41.35064114 27.85954056 41.34765625 29.37255859 C41.36450722 30.4198111 41.36450722 30.4198111 41.38169861 31.48822021 C41.30536779 36.94388678 39.81858326 39.97508406 36.8515625 44.38818359 C33.66201949 47.11608222 29.91198875 48.45116215 25.8515625 49.38818359 C24.41187844 52.26755172 24.5487395 54.17825978 24.8515625 57.38818359 C25.4909375 58.33693359 26.1303125 59.28568359 26.7890625 60.26318359 C29.63780459 64.68123273 29.41289908 69.7003336 29.52319336 74.79003906 C29.62303973 78.51852437 29.72817959 80.20310923 31.8515625 83.38818359 C34.90285973 83.8990522 34.90285973 83.8990522 38.3515625 83.95068359 C44.64375538 84.18037648 44.64375538 84.18037648 46.8515625 86.38818359 C47.15234375 88.26318359 47.15234375 88.26318359 47.1640625 90.38818359 C47.18082031 91.08943359 47.19757813 91.79068359 47.21484375 92.51318359 C47.09496094 93.13193359 46.97507812 93.75068359 46.8515625 94.38818359 C43.8515625 96.38818359 43.8515625 96.38818359 40.9765625 96.20068359 C37.78837659 95.37175526 35.62801338 94.11408549 32.8515625 92.38818359 C31.8615625 92.38818359 30.8715625 92.38818359 29.8515625 92.38818359 C29.8515625 95.35818359 29.8515625 98.32818359 29.8515625 101.38818359 C43.2165625 101.88318359 43.2165625 101.88318359 56.8515625 102.38818359 C57.1815625 104.03818359 57.5115625 105.68818359 57.8515625 107.38818359 C56.07491647 109.16482962 53.48324763 108.5342954 51.07836914 108.54931641 C49.84361343 108.55892395 48.60885773 108.56853149 47.33668518 108.57843018 C45.9783649 108.58327728 44.62004249 108.58755632 43.26171875 108.59130859 C41.87788387 108.59705733 40.49404904 108.6028151 39.11021423 108.60858154 C36.2057152 108.6190995 33.30124392 108.62493706 30.39672852 108.62841797 C26.66945988 108.63390687 22.94255581 108.65793948 19.21540165 108.68638992 C16.35614439 108.70498527 13.49697552 108.71022021 10.63766289 108.71175385 C9.26328982 108.71478757 7.88891856 108.72284027 6.51460457 108.73593903 C4.5945262 108.75293414 2.67429833 108.74928398 0.75415039 108.74462891 C-0.88679848 108.75009735 -0.88679848 108.75009735 -2.56089783 108.75567627 C-3.41478592 108.63440369 -4.26867401 108.5131311 -5.1484375 108.38818359 C-7.73281915 104.51161112 -7.51692138 101.54457043 -7.70703125 96.98193359 C-8.21198159 94.01479178 -8.74011553 93.13463417 -11.1484375 91.38818359 C-13.46609479 90.66891064 -15.79939624 89.99719429 -18.1484375 89.38818359 C-19.1484375 88.38818359 -19.1484375 88.38818359 -19.26196289 86.4387207 C-19.25410767 85.18973999 -19.25410767 85.18973999 -19.24609375 83.91552734 C-19.24287109 83.01640625 -19.23964844 82.11728516 -19.23632812 81.19091797 C-19.22794922 80.24539062 -19.21957031 79.29986328 -19.2109375 78.32568359 C-19.20642578 77.37628906 -19.20191406 76.42689453 -19.19726562 75.44873047 C-19.1854386 73.09515294 -19.16895775 70.74169882 -19.1484375 68.38818359 C-17.1684375 67.39818359 -17.1684375 67.39818359 -15.1484375 66.38818359 C-12.29050434 69.24611675 -12.74043809 71.53483943 -12.5234375 75.51318359 C-12.44867188 76.79451172 -12.37390625 78.07583984 -12.296875 79.39599609 C-12.24789062 80.38341797 -12.19890625 81.37083984 -12.1484375 82.38818359 C-10.8284375 82.38818359 -9.5084375 82.38818359 -8.1484375 82.38818359 C-8.09051906 79.26326108 -8.05487004 76.13847594 -8.0234375 73.01318359 C-8.00667969 72.12373047 -7.98992187 71.23427734 -7.97265625 70.31787109 C-7.96621094 69.46708984 -7.95976562 68.61630859 -7.953125 67.73974609 C-7.94265137 66.95422363 -7.93217773 66.16870117 -7.92138672 65.359375 C-7.96853623 63.15371859 -7.96853623 63.15371859 -10.1484375 61.38818359 C-11.3034375 61.05818359 -12.4584375 60.72818359 -13.6484375 60.38818359 C-17.1484375 59.38818359 -17.1484375 59.38818359 -19.1484375 57.38818359 C-19.40722656 54.34716797 -19.40722656 54.34716797 -19.4140625 50.48193359 C-19.41597595 49.80142944 -19.4178894 49.12092529 -19.41986084 48.4197998 C-19.42122213 46.98070913 -19.41752955 45.54160616 -19.40917969 44.10253906 C-19.39847878 41.89669272 -19.40907622 39.69166078 -19.421875 37.48583984 C-19.42055339 36.08870263 -19.41799098 34.69156591 -19.4140625 33.29443359 C-19.41180664 32.01890625 -19.40955078 30.74337891 -19.40722656 29.42919922 C-19.1484375 26.38818359 -19.1484375 26.38818359 -17.1484375 24.38818359 C-15.23828125 24.00927734 -15.23828125 24.00927734 -13.0859375 23.82568359 C-9.38107133 23.82904911 -9.38107133 23.82904911 -8.1484375 22.38818359 C-8.02824937 21.00881088 -7.96900599 19.62398655 -7.9375 18.23974609 C-7.90914062 17.39927734 -7.88078125 16.55880859 -7.8515625 15.69287109 C-7.79971291 13.91443006 -7.75537276 12.13575334 -7.71875 10.35693359 C-7.67234375 9.09236328 -7.67234375 9.09236328 -7.625 7.80224609 C-7.60518066 7.0283252 -7.58536133 6.2544043 -7.56494141 5.45703125 C-6.70571488 1.18910303 -4.09368916 0.01337696 0 0 Z " fill="#95A3A1" transform="translate(247.1484375,149.61181640625)"/>
<path d="M0 0 C0.90851715 -0.00701431 1.8170343 -0.01402863 2.75308228 -0.02125549 C3.74746307 -0.01361176 4.74184387 -0.00596802 5.76635742 0.00190735 C6.81536224 -0.00174332 7.86436707 -0.00539398 8.94515991 -0.00915527 C12.4208788 -0.01727693 15.89613386 -0.0036369 19.37182617 0.01094055 C21.78173828 0.01145896 24.19165081 0.010942 26.6015625 0.00942993 C31.65558168 0.00951973 36.70944159 0.0199644 41.76342773 0.03804016 C48.25035795 0.06072743 54.73705531 0.06127217 61.22401428 0.05452251 C66.2013151 0.05118524 71.17856257 0.0578081 76.15585327 0.06765175 C78.54812338 0.07150819 80.94039942 0.07265013 83.33267212 0.0710659 C86.67266194 0.07069614 90.01235027 0.08329082 93.35229492 0.0995636 C94.34667572 0.09708618 95.34105652 0.09460876 96.36557007 0.09205627 C97.72834579 0.10268349 97.72834579 0.10268349 99.11865234 0.11352539 C100.3033033 0.1166047 100.3033033 0.1166047 101.5118866 0.11974621 C103.55932617 0.3742218 103.55932617 0.3742218 106.55932617 2.3742218 C106.94129372 4.71025181 106.94129372 4.71025181 106.95132446 7.69515991 C106.96241745 8.82396072 106.97351044 9.95276154 106.98493958 11.11576843 C106.98193344 12.3600058 106.97892731 13.60424316 106.97583008 14.88618469 C106.98441544 16.19184891 106.99300079 17.49751312 107.00184631 18.84274292 C107.02522215 22.42938949 107.03032168 26.01586316 107.03250551 29.60257649 C107.03815424 33.34979547 107.06141864 37.09690073 107.08309937 40.84405518 C107.12166556 47.94368343 107.14585784 55.04327927 107.16422403 62.14298576 C107.19760461 74.86574742 107.25524889 87.58841215 107.31821573 100.31105798 C107.33976265 104.77990698 107.35500073 109.24872222 107.36505532 113.71761143 C107.37037119 115.82521958 107.37783729 117.93280725 107.38621521 120.04040527 C107.39625234 122.61632596 107.40261548 125.19226439 107.4047699 127.76820374 C107.41022324 128.89418472 107.41567657 130.02016571 107.42129517 131.18026733 C107.42385126 132.16490998 107.42640736 133.14955263 107.42904091 134.16403294 C107.31227076 136.3485902 107.31227076 136.3485902 108.55932617 137.3742218 C110.05137865 137.74149626 111.55331265 138.06920641 113.05932617 138.3742218 C117.44821506 139.26311069 117.44821506 139.26311069 118.55932617 140.3742218 C119.02986818 146.72653896 119.02986818 146.72653896 117.32166386 149.07781601 C115.09288865 150.71734124 113.86350605 150.74681565 111.11192322 150.74171448 C110.20196091 150.74728363 109.2919986 150.75285278 108.35446167 150.7585907 C107.35850983 150.74937592 106.36255798 150.74016113 105.33642578 150.73066711 C104.28581467 150.73271149 103.23520355 150.73475586 102.15275574 150.73686218 C98.67221807 150.73987583 95.19215146 150.72137606 91.71166992 150.7023468 C89.29936338 150.69929028 86.88705507 150.69741335 84.4747467 150.69667053 C79.41652688 150.69206388 74.35846594 150.67762316 69.30029297 150.6554718 C62.80434107 150.6271741 56.30851436 150.61625919 49.81250668 150.6117897 C44.83096556 150.60764034 39.84944995 150.59782715 34.86792183 150.58591461 C32.47203336 150.58020261 30.07614243 150.575447 27.68025017 150.57164764 C24.33773321 150.56480114 20.99531701 150.55117669 17.65283203 150.53535461 C16.65485596 150.53423676 15.65687988 150.5331189 14.62866211 150.53196716 C13.72151962 150.52625702 12.81437714 150.52054688 11.87974548 150.5146637 C11.08905639 150.51168903 10.29836729 150.50871437 9.48371792 150.50564957 C7.55932617 150.3742218 7.55932617 150.3742218 5.55932617 149.3742218 C4.781209 145.55437385 4.31546061 143.10581849 5.55932617 139.3742218 C8.8227877 137.74249104 12.42848922 138.20282995 16.01635742 138.18476868 C17.32870865 138.17232872 17.32870865 138.17232872 18.66757202 138.15963745 C20.57079239 138.14221693 22.47403446 138.12705562 24.37728882 138.11386108 C27.38569815 138.09287503 30.39399842 138.0658494 33.40234375 138.03718567 C40.87417204 137.96726495 48.34607797 137.90791832 55.81799316 137.84815979 C62.12906469 137.79728509 68.4400778 137.7424741 74.75106812 137.68234253 C77.72139771 137.65569988 80.69173254 137.63492659 83.66210938 137.61433411 C85.47550722 137.59773575 87.28890259 137.58086432 89.10229492 137.56367493 C89.93352875 137.55949051 90.76476257 137.55530609 91.6211853 137.55099487 C95.72253425 137.60610338 95.72253425 137.60610338 99.55932617 136.3742218 C99.58265499 119.70236729 99.60030526 103.03051804 99.61113834 86.35865116 C99.61630134 78.61814899 99.6233441 70.87765693 99.63476562 63.13716125 C99.64471236 56.39295029 99.65117957 49.64874665 99.65341467 42.90452856 C99.65472179 39.33135314 99.65780775 35.7581987 99.66505623 32.18502998 C99.67306989 28.2025983 99.67331732 24.22018739 99.67285156 20.23774719 C99.67824448 18.44779831 99.67824448 18.44779831 99.68374634 16.62168884 C99.68168434 15.00410927 99.68168434 15.00410927 99.67958069 13.35385132 C99.68050248 12.4108571 99.68142427 11.46786287 99.682374 10.49629307 C99.79619052 8.38942336 99.79619052 8.38942336 98.55932617 7.3742218 C95.52066856 7.27357981 92.50469887 7.2380759 89.46557617 7.24482727 C88.51118652 7.24307495 87.55679688 7.24132263 86.57348633 7.23951721 C83.4020814 7.23509694 80.23073172 7.2380373 77.05932617 7.2414093 C74.86596669 7.24073631 72.67260728 7.23976633 70.47924805 7.23851013 C65.87572522 7.23703292 61.27222175 7.23918846 56.66870117 7.24385071 C50.75328022 7.249548 44.83790464 7.24626912 38.92248535 7.24027824 C34.39135391 7.23667326 29.86023332 7.23781093 25.32910156 7.24040604 C23.14729812 7.24107548 20.96549371 7.24024628 18.78369141 7.23792648 C15.74012628 7.23540098 12.69663571 7.2392391 9.65307617 7.24482727 C8.74187012 7.24280304 7.83066406 7.24077881 6.8918457 7.23869324 C2.90812248 6.85119394 2.90812248 6.85119394 -0.44067383 8.3742218 C-0.54456474 10.01213253 -0.57864371 11.65451186 -0.58543396 13.29570007 C-0.59233246 14.36133682 -0.59923096 15.42697357 -0.6063385 16.52490234 C-0.60895187 17.70413773 -0.61156525 18.88337311 -0.61425781 20.0983429 C-0.62094482 21.3323735 -0.62763184 22.56640411 -0.63452148 23.83782959 C-0.64861122 26.52794616 -0.66093109 29.21800777 -0.67046928 31.90813828 C-0.68588743 36.16010906 -0.70983638 40.41200464 -0.73536682 44.66392517 C-0.8066607 56.75676223 -0.86636659 68.84964258 -0.91748047 80.94258118 C-0.94576687 87.61691882 -0.98113976 94.29118188 -1.02413422 100.96544135 C-1.0509407 105.19372618 -1.06882499 109.42192659 -1.08017147 113.65027976 C-1.09142614 116.89734041 -1.11555249 120.14430974 -1.13769531 123.39131165 C-1.13828445 124.56649857 -1.1388736 125.74168549 -1.13948059 126.95248413 C-1.14919891 128.02376053 -1.15891724 129.09503693 -1.16893005 130.19877625 C-1.17316199 131.13125372 -1.17739393 132.06373119 -1.18175411 133.02446556 C-1.44067383 135.3742218 -1.44067383 135.3742218 -3.44067383 138.3742218 C-4.76067383 137.7142218 -6.08067383 137.0542218 -7.44067383 136.3742218 C-7.51070833 119.08500904 -7.56363466 101.79584045 -7.59611034 84.50651836 C-7.61158915 76.47905426 -7.63269794 68.45167822 -7.66699219 60.42427063 C-7.69686363 53.42880328 -7.71624146 46.43339968 -7.72293931 39.43787032 C-7.72685543 35.73265651 -7.73607963 32.02762514 -7.757864 28.32246971 C-7.78196736 24.18949107 -7.78264528 20.05683101 -7.78125 15.92378235 C-7.79203583 14.69091995 -7.80282166 13.45805756 -7.81393433 12.18783569 C-7.80981033 11.06462921 -7.80568634 9.94142273 -7.80143738 8.78417969 C-7.80558545 7.31714615 -7.80558545 7.31714615 -7.80981731 5.82047558 C-7.44067383 3.3742218 -7.44067383 3.3742218 -6.19566822 1.5594883 C-3.97595874 0.06036825 -2.6696632 -0.00056702 0 0 Z " fill="#95A2A1" transform="translate(55.440673828125,71.62577819824219)"/>
<path d="M0 0 C2.1155986 -0.00219714 4.23068422 -0.02040503 6.34619141 -0.03930664 C7.68863754 -0.04223888 9.03108615 -0.04422481 10.37353516 -0.04516602 C12.20489014 -0.05132935 12.20489014 -0.05132935 14.07324219 -0.05761719 C16.99072266 0.18530273 16.99072266 0.18530273 18.99072266 2.18530273 C19.23796082 4.81080627 19.23796082 4.81080627 19.23364258 8.1796875 C19.23825752 10.06658043 19.23825752 10.06658043 19.2429657 11.99159241 C19.23606848 13.36996645 19.22880155 14.74833869 19.22119141 16.12670898 C19.2199997 17.53393003 19.21954642 18.94115188 19.21980286 20.34837341 C19.21823779 23.29821752 19.20994564 26.24794031 19.1965332 29.19775391 C19.1795277 32.98662102 19.17571928 36.77535491 19.17647839 40.56425571 C19.17620703 43.46979555 19.17073159 46.37530602 19.16347694 49.28083611 C19.160286 50.67834183 19.15832188 52.07585089 19.15758324 53.47336006 C19.15542508 55.42235631 19.14589579 57.37134025 19.13598633 59.3203125 C19.13026863 60.98671532 19.13026863 60.98671532 19.12443542 62.68678284 C18.99072266 65.18530273 18.99072266 65.18530273 17.99072266 66.18530273 C15.31855805 66.35873788 12.67015832 66.46976294 9.99462891 66.53686523 C8.76231789 66.57159439 8.76231789 66.57159439 7.50511169 66.60702515 C5.75062574 66.65482047 3.99606792 66.70003472 2.24145508 66.74291992 C-0.37696317 66.80855278 -2.99476779 66.88693969 -5.61279297 66.96655273 C-16.80143118 67.27302534 -27.84626742 66.99071471 -39.00927734 66.18530273 C-39.33927734 65.19530273 -39.66927734 64.20530273 -40.00927734 63.18530273 C-40.66927734 62.85530273 -41.32927734 62.52530273 -42.00927734 62.18530273 C-35.46769335 58.53418609 -29.37048106 58.88642679 -22.00927734 59.18530273 C-21.67927734 58.52530273 -21.34927734 57.86530273 -21.00927734 57.18530273 C-19.52427734 56.69030273 -19.52427734 56.69030273 -18.00927734 56.18530273 C-18.01149796 55.58475067 -18.01371857 54.98419861 -18.01600647 54.365448 C-18.03816444 48.10358272 -18.05322783 41.84172863 -18.06420898 35.57983398 C-18.06923147 33.2442174 -18.07605066 30.90860395 -18.0847168 28.57299805 C-18.09687364 25.21198756 -18.10252658 21.85101873 -18.10693359 18.48999023 C-18.11209488 17.44914276 -18.11725616 16.40829529 -18.12257385 15.33590698 C-18.12294604 10.50411474 -18.03201696 5.93449499 -17.00927734 1.18530273 C-11.53525833 -0.52160366 -5.67698843 -0.00066274 0 0 Z " fill="#1C2336" transform="translate(227.00927734375,263.814697265625)"/>
<path d="M0 0 C1.65 0 3.3 0 5 0 C5.00634791 1.13501528 5.00634791 1.13501528 5.01282406 2.29296017 C5.11598712 20.67782543 5.22460304 39.062651 5.33933926 57.44744778 C5.39469165 66.33807987 5.4481769 75.22871597 5.49731445 84.11938477 C5.54013165 91.86563746 5.58640332 99.61186037 5.63687855 107.3580671 C5.66349942 111.46219169 5.6883529 115.56631031 5.70907402 119.67046928 C5.72860936 123.52897536 5.75274362 127.38742463 5.78049088 131.24588013 C5.78987782 132.66611262 5.79754715 134.08635759 5.80341911 135.50660896 C5.81165239 137.43744977 5.82651802 139.36825898 5.84178162 141.29905701 C5.84823417 142.38216376 5.85468672 143.46527052 5.8613348 144.58119869 C5.7279637 146.94978939 5.7279637 146.94978939 7 148 C9.68800132 148.24352558 12.34792222 148.40813744 15.04296875 148.52734375 C15.948228 148.56866928 16.85348724 148.60999481 17.78617859 148.65257263 C33.71253361 149.30295223 49.66278749 149.3572337 65.59979248 149.53222656 C70.16617042 149.5831867 74.73249594 149.63847674 79.29882812 149.69335938 C88.1991736 149.79971582 97.0995653 149.90141291 106 150 C106 150.66 106 151.32 106 152 C106.33 151.34 106.66 150.68 107 150 C111.29 150 115.58 150 120 150 C120 157.2 120 157.2 118 160 C115.04224593 161.80702756 112.81811525 162.25187618 109.37660217 162.26069641 C108.45277237 162.26778122 107.52894257 162.27486603 106.57711792 162.28216553 C105.57077301 162.27968811 104.5644281 162.27721069 103.52758789 162.2746582 C102.46214249 162.27976913 101.39669708 162.28488007 100.29896545 162.29014587 C96.77347207 162.30405746 93.24817383 162.30308393 89.72265625 162.30078125 C87.2741234 162.30466723 84.82559123 162.30900169 82.37705994 162.31376648 C77.24329443 162.32123201 72.10959769 162.32093491 66.97583008 162.31567383 C60.39379924 162.30987791 53.81204967 162.32681183 47.23006535 162.3500185 C42.17291109 162.3647428 37.11582477 162.36562932 32.05865288 162.36250877 C29.63174317 162.36302261 27.20482971 162.36827199 24.77794075 162.37832069 C21.38570952 162.39064259 17.99402891 162.38391855 14.60180664 162.37231445 C13.59748596 162.37995819 12.59316528 162.38760193 11.55841064 162.39547729 C2.5066443 162.32695957 2.5066443 162.32695957 -1 159 C-1.70236206 156.67225647 -1.70236206 156.67225647 -1.80419922 153.97290039 C-1.85042419 152.99136993 -1.89664917 152.00983948 -1.9442749 150.99856567 C-1.96266418 150.009039 -1.98105347 149.01951233 -2 148 C-2.02531799 147.12560272 -2.05063599 146.25120544 -2.07672119 145.35031128 C-2.13080093 142.71039918 -2.13877656 140.0740261 -2.1328125 137.43359375 C-2.13376923 136.47405289 -2.13472595 135.51451202 -2.13571167 134.52589417 C-2.13638658 132.51506484 -2.13458089 130.50423324 -2.13037109 128.4934082 C-2.12500706 125.44151862 -2.13034277 122.38977577 -2.13671875 119.33789062 C-2.13605796 117.36979135 -2.13477678 115.40169216 -2.1328125 113.43359375 C-2.13483673 112.53539413 -2.13686096 111.63719452 -2.13894653 110.71177673 C-2.12365087 106.51600084 -1.9772195 102.41542485 -1.5 98.24560547 C-0.78618387 91.71730997 -0.85688398 85.19721293 -0.8671875 78.63671875 C-0.86651219 77.27293378 -0.86554027 75.90914894 -0.86428833 74.54536438 C-0.86282455 71.70723305 -0.86492475 68.86913347 -0.86962891 66.03100586 C-0.8753528 62.4019531 -0.8720221 58.77297389 -0.86605644 55.14392376 C-0.86243827 52.3360387 -0.86359473 49.52817101 -0.86618423 46.72028542 C-0.86717 44.73447751 -0.86414795 42.7486689 -0.86105347 40.76286316 C-0.86420563 39.55423111 -0.86735779 38.34559906 -0.87060547 37.1003418 C-0.87140106 36.04018356 -0.87219666 34.98002533 -0.87301636 33.88774109 C-0.99356295 31.14638528 -1.42246195 28.67573135 -2 26 C-2.02593473 24.11063792 -1.99368724 22.21989289 -1.9140625 20.33203125 C-1.87023438 19.27435547 -1.82640625 18.21667969 -1.78125 17.12695312 C-1.7296875 16.03318359 -1.678125 14.93941406 -1.625 13.8125 C-1.58117188 12.70712891 -1.53734375 11.60175781 -1.4921875 10.46289062 C-1.13105194 2.26210387 -1.13105194 2.26210387 0 0 Z " fill="#1C2337" transform="translate(37,73)"/>
<path d="M0 0 C1.1875 2.5625 1.1875 2.5625 2 5 C2.66 5 3.32 5 4 5 C5.36233092 9.08699276 5.26350956 12.90573539 5.3125 17.1875 C5.35600586 18.4259668 5.35600586 18.4259668 5.40039062 19.68945312 C5.46027451 25.53504167 4.49728736 30.20365888 1 35 C-3.4406496 38.6319018 -9.26936606 41 -15 41 C-15.33 40.67 -15.66 40.34 -16 40 C-17.38160115 39.9072167 -18.76788038 39.88252957 -20.15258789 39.88647461 C-21.03342545 39.88655014 -21.914263 39.88662567 -22.8217926 39.88670349 C-24.25772011 39.89444542 -24.25772011 39.89444542 -25.72265625 39.90234375 C-27.18547279 39.90446617 -27.18547279 39.90446617 -28.67784119 39.90663147 C-31.80609143 39.91224867 -34.93427123 39.92480407 -38.0625 39.9375 C-40.17773334 39.94251278 -42.29296781 39.94707607 -44.40820312 39.95117188 C-49.60549296 39.96222369 -54.80274145 39.97897854 -60 40 C-60.01981934 40.62567871 -60.03963867 41.25135742 -60.06005859 41.89599609 C-60.15514226 44.72276519 -60.26488746 47.54877815 -60.375 50.375 C-60.42140625 51.85226563 -60.42140625 51.85226563 -60.46875 53.359375 C-60.50742188 54.30039063 -60.54609375 55.24140625 -60.5859375 56.2109375 C-60.6173584 57.08024902 -60.6487793 57.94956055 -60.68115234 58.84521484 C-61 61 -61 61 -63 63 C-64.91015625 63.37890625 -64.91015625 63.37890625 -67.0625 63.5625 C-70.76736617 63.55913448 -70.76736617 63.55913448 -72 65 C-72.15786308 66.85174706 -72.25107356 68.7090911 -72.31640625 70.56640625 C-72.35830078 71.69111328 -72.40019531 72.81582031 -72.44335938 73.97460938 C-72.48267578 75.15861328 -72.52199219 76.34261719 -72.5625 77.5625 C-72.60568359 78.75037109 -72.64886719 79.93824219 -72.69335938 81.16210938 C-72.79983546 84.10794784 -72.90184841 87.0538743 -73 90 C-73.33 89.34 -73.66 88.68 -74 88 C-74.99 87.67 -75.98 87.34 -77 87 C-79.55705904 81.7175203 -79.339207 76.22662424 -79.37109375 70.484375 C-79.38012222 69.47336731 -79.3891507 68.46235962 -79.39845276 67.42071533 C-79.41292571 65.28587795 -79.42183463 63.15099651 -79.42553711 61.01611328 C-79.43741103 57.77429147 -79.48660846 54.53438817 -79.53710938 51.29296875 C-79.54657748 49.21094671 -79.55381066 47.12891307 -79.55859375 45.046875 C-79.57812607 44.08924255 -79.59765839 43.13161011 -79.61778259 42.1449585 C-79.5718369 35.183596 -77.90576732 29.8108634 -74 24 C-69.44953663 20.56187212 -65.49966656 20.47622223 -60 21 C-57 22.375 -57 22.375 -55 24 C-55 24.66 -55 25.32 -55 26 C-53.02 26 -51.04 26 -49 26 C-49 25.34 -49 24.68 -49 24 C-44.88611803 20.70838996 -40.92376594 20.53205942 -35.85546875 20.48828125 C-34.7007885 20.46135445 -34.7007885 20.46135445 -33.52278137 20.43388367 C-31.07774236 20.37994613 -28.63289668 20.34593927 -26.1875 20.3125 C-24.52406174 20.27931218 -22.86064893 20.24482116 -21.19726562 20.20898438 C-17.13165029 20.12422963 -13.06609064 20.05734027 -9 20 C-7.79727181 17.59454362 -7.89928528 16.05003047 -7.9375 13.375 C-7.94652344 12.55773437 -7.95554687 11.74046875 -7.96484375 10.8984375 C-7.97644531 10.27195312 -7.98804688 9.64546875 -8 9 C-10.62901288 10.52206009 -12.84365964 11.84365964 -15 14 C-15.99 14 -16.98 14 -18 14 C-18.97401852 11.00301993 -19.34351064 8.86680255 -18.1640625 5.890625 C-16.13119256 2.34281377 -14.67627982 0.35222907 -11 -1.5625 C-6.80160381 -2.17476611 -3.96864315 -1.32288105 0 0 Z " fill="#475767" transform="translate(301,111)"/>
<path d="M0 0 C1.18154663 -0.00430527 1.18154663 -0.00430527 2.38696289 -0.00869751 C4.05127685 -0.01073772 5.71561481 -0.00521082 7.37988281 0.00732422 C9.92827947 0.02337941 12.47509021 0.00747506 15.0234375 -0.01171875 C16.6406285 -0.00973631 18.25781852 -0.00589261 19.875 0 C20.63756104 -0.00607269 21.40012207 -0.01214539 22.18579102 -0.0184021 C25.03946299 0.01956115 27.36763182 0.0936914 29.91430664 1.45556641 C31.51164372 4.48863929 31.38500697 7.53552621 31.37109375 10.8828125 C31.3763356 11.61663147 31.38157745 12.35045044 31.38697815 13.10650635 C31.39339909 14.65985857 31.39206035 16.21325941 31.38354492 17.76660156 C31.37507852 20.12655083 31.40371895 22.48404265 31.43554688 24.84375 C31.43716031 26.35677011 31.43657864 27.86979447 31.43359375 29.3828125 C31.45044472 30.430065 31.45044472 30.430065 31.46763611 31.49847412 C31.39108178 36.97011562 29.96241324 39.9967025 26.9375 44.3984375 C21.40463418 48.65874418 16.78437792 49.02106815 9.9375 48.8984375 C8.64199219 48.92164063 8.64199219 48.92164063 7.3203125 48.9453125 C1.36452984 48.90910713 -2.34224803 48.12743655 -7.0625 44.3984375 C-12.55194613 38.26414369 -11.63699455 29.57466979 -11.52905273 21.8605957 C-11.49984313 19.57365566 -11.50851896 17.28900356 -11.52148438 15.00195312 C-11.47520466 4.17569301 -11.47520466 4.17569301 -10.03930664 1.47143555 C-6.84839027 -0.26057352 -3.54011052 -0.02819185 0 0 Z " fill="#E6E6DF" transform="translate(257.0625,149.6015625)"/>
<path d="M0 0 C1.953125 0.5546875 1.953125 0.5546875 4 2 C4.609375 5.2578125 4.609375 5.2578125 4.75 9.125 C4.80671875 10.40632812 4.8634375 11.68765625 4.921875 13.0078125 C4.94765625 13.99523437 4.9734375 14.98265625 5 16 C6.32 16 7.64 16 9 16 C9.66 14.35 10.32 12.7 11 11 C22.22 11 33.44 11 45 11 C45 11.99 45 12.98 45 14 C45.66 14 46.32 14 47 14 C47.66 14.99 48.32 15.98 49 17 C52.05129723 17.51086861 52.05129723 17.51086861 55.5 17.5625 C61.79219288 17.79219288 61.79219288 17.79219288 64 20 C64.30078125 21.875 64.30078125 21.875 64.3125 24 C64.32925781 24.70125 64.34601563 25.4025 64.36328125 26.125 C64.24339844 26.74375 64.12351562 27.3625 64 28 C61 30 61 30 58.125 29.8125 C54.93681409 28.98357166 52.77645088 27.7259019 50 26 C49.01 26 48.02 26 47 26 C47 28.97 47 31.94 47 35 C60.365 35.495 60.365 35.495 74 36 C74.495 38.475 74.495 38.475 75 41 C73.22335397 42.77664603 70.63168513 42.14611181 68.22680664 42.16113281 C66.37467308 42.17554413 66.37467308 42.17554413 64.48512268 42.19024658 C63.1268024 42.19509368 61.76847999 42.19937273 60.41015625 42.203125 C59.02632137 42.20887374 57.64248654 42.2146315 56.25865173 42.22039795 C53.3541527 42.2309159 50.44968142 42.23675346 47.54516602 42.24023438 C43.81789738 42.24572328 40.09099331 42.26975588 36.36383915 42.29820633 C33.50458189 42.31680167 30.64541302 42.32203661 27.78610039 42.32357025 C26.41172732 42.32660398 25.03735606 42.33465668 23.66304207 42.34775543 C21.7429637 42.36475055 19.82273583 42.36110039 17.90258789 42.35644531 C16.26163902 42.36191376 16.26163902 42.36191376 14.58753967 42.36749268 C13.73365158 42.24622009 12.87976349 42.12494751 12 42 C9.41561835 38.12342752 9.63151612 35.15638684 9.44140625 30.59375 C8.93645591 27.62660818 8.40832197 26.74645057 6 25 C3.68234271 24.28072705 1.34904126 23.6090107 -1 23 C-3.30009773 20.69990227 -2.18537365 15.15209334 -2.1875 12.0625 C-2.19974609 11.12986328 -2.21199219 10.19722656 -2.22460938 9.23632812 C-2.22654297 8.34494141 -2.22847656 7.45355469 -2.23046875 6.53515625 C-2.23663208 5.30357788 -2.23663208 5.30357788 -2.24291992 4.04711914 C-2 2 -2 2 0 0 Z " fill="#95A3A1" transform="translate(230,216)"/>
<path d="M0 0 C1.670625 0.061875 1.670625 0.061875 3.375 0.125 C2.385 0.62 2.385 0.62 1.375 1.125 C1.375 45.675 1.375 90.225 1.375 136.125 C2.365 136.455 3.355 136.785 4.375 137.125 C5.365 136.135 5.365 136.135 6.375 135.125 C7.035 135.785 7.695 136.445 8.375 137.125 C10.69775177 137.52547444 13.03239357 137.8647104 15.375 138.125 C14.715 138.455 14.055 138.785 13.375 139.125 C13.375 142.425 13.375 145.725 13.375 149.125 C14.035 149.455 14.695 149.785 15.375 150.125 C12.25007749 150.18291844 9.12529234 150.21856746 6 150.25 C5.11054687 150.26675781 4.22109375 150.28351563 3.3046875 150.30078125 C2.45390625 150.30722656 1.603125 150.31367188 0.7265625 150.3203125 C-0.05895996 150.33078613 -0.84448242 150.34125977 -1.65380859 150.35205078 C-3.625 150.125 -3.625 150.125 -5.625 148.125 C-5.87668228 145.60435486 -5.87668228 145.60435486 -5.87896729 142.35522461 C-5.88460693 141.12689911 -5.89024658 139.89857361 -5.89605713 138.63302612 C-5.89216818 137.26446475 -5.88807182 135.89590395 -5.88378906 134.52734375 C-5.8864979 133.09188662 -5.89005823 131.65643088 -5.89440918 130.22097778 C-5.90354821 126.31609329 -5.89998273 122.41131416 -5.89365101 118.50642776 C-5.88859882 114.42607584 -5.89328028 110.34573313 -5.89642334 106.26538086 C-5.90006527 99.4122556 -5.89525795 92.55917341 -5.88574219 85.70605469 C-5.87485719 77.77508182 -5.87838261 69.84421176 -5.889395 61.91324139 C-5.89846142 55.11236787 -5.89975632 48.31152537 -5.89451766 41.51064777 C-5.8913944 37.44505947 -5.89099834 33.37951955 -5.89759064 29.31393433 C-5.90335413 25.4923202 -5.89938563 21.67083906 -5.88780212 17.84923935 C-5.88515017 16.44393002 -5.88592971 15.03860955 -5.89032745 13.6333046 C-5.89576304 11.7204655 -5.8877497 9.80760205 -5.87896729 7.89477539 C-5.87821323 6.82256241 -5.87745918 5.75034943 -5.87668228 4.64564514 C-5.45164647 0.38883191 -4.14381568 0.1428902 0 0 Z " fill="#485767" transform="translate(47.625,71.875)"/>
<path d="M0 0 C6.0546875 -0.1953125 6.0546875 -0.1953125 8 0 C10.56565745 2.56565745 10.25290855 3.52239296 10.26069641 7.08642578 C10.26778122 8.16329651 10.27486603 9.24016724 10.28216553 10.34967041 C10.27968811 11.5362323 10.27721069 12.72279419 10.2746582 13.9453125 C10.27976913 15.190849 10.28488007 16.4363855 10.29014587 17.71966553 C10.30168839 21.14113956 10.3041117 24.56237184 10.30158257 27.98384857 C10.30051481 30.83692634 10.30539114 33.68998162 10.310188 36.54305458 C10.32129211 43.27155862 10.32171532 50.00000685 10.31567383 56.72851562 C10.3096301 63.67796398 10.32195298 70.62721008 10.3432439 77.57662392 C10.36083484 83.53674425 10.3668653 89.49680006 10.36360615 95.45694542 C10.36178936 99.01955028 10.36446876 102.58201084 10.37832069 106.14459229 C10.39317904 110.11470547 10.38395089 114.08455909 10.37231445 118.0546875 C10.37995819 119.24124939 10.38760193 120.42781128 10.39547729 121.65032959 C10.38846298 122.72720032 10.38144867 123.80407104 10.3742218 124.91357422 C10.37438954 125.85304901 10.37455729 126.7925238 10.37473011 127.76046753 C10.25106917 128.49951324 10.12740824 129.23855896 10 130 C6.5647952 132.29013653 5.014669 132.17842973 1 132 C1.48755925 131.1740439 1.48755925 131.1740439 1.98496819 130.33140182 C3.17460993 127.59894271 3.24638837 125.67251596 3.24050903 122.6975708 C3.24325836 121.62347458 3.24600769 120.54937836 3.24884033 119.44273376 C3.24164978 118.26957108 3.23445923 117.09640839 3.22705078 115.88769531 C3.22734283 114.64840775 3.22763489 113.40912018 3.22793579 112.13227844 C3.22678149 108.73789993 3.21675359 105.34376493 3.20278788 101.94942951 C3.19028225 98.40068085 3.18911015 94.85192892 3.18673706 91.30316162 C3.18052179 84.58485457 3.16411036 77.86661264 3.14403808 71.14833426 C3.12168053 63.49906127 3.11068601 55.84978515 3.10064721 48.20048761 C3.07974416 32.46695403 3.04456729 16.73348542 3 1 C2.01 0.67 1.02 0.34 0 0 Z " fill="#475767" transform="translate(146,78)"/>
<path d="M0 0 C11.22 0 22.44 0 34 0 C34 0.99 34 1.98 34 3 C34.66 3 35.32 3 36 3 C36.66 3.99 37.32 4.98 38 6 C41.05129723 6.51086861 41.05129723 6.51086861 44.5 6.5625 C50.79219288 6.79219288 50.79219288 6.79219288 53 9 C53.30078125 10.875 53.30078125 10.875 53.3125 13 C53.32925781 13.70125 53.34601563 14.4025 53.36328125 15.125 C53.24339844 15.74375 53.12351562 16.3625 53 17 C50 19 50 19 47.125 18.8125 C43.91287024 17.97734626 41.6922177 16.92301265 39 15 C38.505 14.01 38.505 14.01 38 13 C35.87423218 12.53348793 35.87423218 12.53348793 33.4375 12.375 C32.61121094 12.30023438 31.78492188 12.22546875 30.93359375 12.1484375 C30.29550781 12.09945312 29.65742188 12.05046875 29 12 C29.04125 12.78375 29.0825 13.5675 29.125 14.375 C29 17 29 17 27 19 C22.86424976 18.83456999 19.80551695 18.00455071 16.25 16 C11.9931563 13.68340726 8.01026962 13.40627158 3.22265625 13.17578125 C1 13 1 13 0 12 C-0.04063832 10.33382885 -0.042721 8.66611905 0 7 C-0.66 7 -1.32 7 -2 7 C-1.34 4.69 -0.68 2.38 0 0 Z " fill="#97A5A3" transform="translate(241,227)"/>
<path d="M0 0 C1.07878418 0.01047363 2.15756836 0.02094727 3.26904297 0.03173828 C5.01894531 0.04140625 5.01894531 0.04140625 6.80419922 0.05126953 C8.02751953 0.06802734 9.25083984 0.08478516 10.51123047 0.10205078 C11.74228516 0.11107422 12.97333984 0.12009766 14.24169922 0.12939453 C17.29006862 0.1530253 20.33805429 0.18597024 23.38623047 0.22705078 C23.76841814 1.88319735 24.10018149 3.55162102 24.38623047 5.22705078 C21.96239529 7.65088596 15.7919401 6.76059943 12.51123047 6.94580078 C9.52125037 6.87840526 9.52125037 6.87840526 8.38623047 8.22705078 C8.28713745 10.55865133 8.25652543 12.8933502 8.26123047 15.22705078 C8.25865234 16.50580078 8.25607422 17.78455078 8.25341797 19.10205078 C8.02762154 22.09392322 8.02762154 22.09392322 9.38623047 23.22705078 C11.73610309 23.46232851 14.09179086 23.64091495 16.44873047 23.78955078 C17.73908203 23.87333984 19.02943359 23.95712891 20.35888672 24.04345703 C21.85742188 24.13433594 21.85742188 24.13433594 23.38623047 24.22705078 C23.76841814 25.88319735 24.10018149 27.55162102 24.38623047 29.22705078 C21.7408245 31.87245675 14.01218861 30.41267231 10.44873047 30.41455078 C9.22992188 30.42679688 8.01111328 30.43904297 6.75537109 30.45166016 C5.01223633 30.45456055 5.01223633 30.45456055 3.23388672 30.45751953 C1.62525757 30.46368286 1.62525757 30.46368286 -0.01586914 30.4699707 C-2.61376953 30.22705078 -2.61376953 30.22705078 -4.61376953 28.22705078 C-4.87255859 25.64501953 -4.87255859 25.64501953 -4.87939453 22.41455078 C-4.88197266 21.25697266 -4.88455078 20.09939453 -4.88720703 18.90673828 C-4.87947266 17.69244141 -4.87173828 16.47814453 -4.86376953 15.22705078 C-4.87150391 14.01275391 -4.87923828 12.79845703 -4.88720703 11.54736328 C-4.88462891 10.38978516 -4.88205078 9.23220703 -4.87939453 8.03955078 C-4.87713867 6.97349609 -4.87488281 5.90744141 -4.87255859 4.80908203 C-4.50997799 1.19148541 -3.62170585 0.31460736 0 0 Z " fill="#D4D6CF" transform="translate(76.61376953125,95.77294921875)"/>
<path d="M0 0 C13.53 0 27.06 0 41 0 C41 2.97 41 5.94 41 9 C39.35 9 37.7 9 36 9 C35.505 5.535 35.505 5.535 35 2 C33.68 2 32.36 2 31 2 C31 2.66 31 3.32 31 4 C24.4 4 17.8 4 11 4 C11 3.34 11 2.68 11 2 C9.68 2 8.36 2 7 2 C7 4.97 7 7.94 7 11 C8.32 11 9.64 11 11 11 C11.33 10.01 11.66 9.02 12 8 C17.94 8 23.88 8 30 8 C30.66 9.32 31.32 10.64 32 12 C34.18541552 12.6993514 34.18541552 12.6993514 36.625 12.75 C37.85089844 12.83507812 37.85089844 12.83507812 39.1015625 12.921875 C39.72804688 12.94765625 40.35453125 12.9734375 41 13 C41 14.32 41 15.64 41 17 C27.47 17 13.94 17 0 17 C0 11.39 0 5.78 0 0 Z " fill="#EBECE6" transform="translate(246,161)"/>
<path d="M0 0 C1.48828125 0.98828125 1.48828125 0.98828125 3 3 C3.21714241 5.81127043 3.28284276 8.3883345 3.1875 11.1875 C3.16719727 12.31188477 3.16719727 12.31188477 3.14648438 13.45898438 C3.11118539 15.30629767 3.05737917 17.15324066 3 19 C2.505 17.515 2.505 17.515 2 16 C-9.22 16 -20.44 16 -32 16 C-32.33 16.99 -32.66 17.98 -33 19 C-33 14.05 -33 9.1 -33 4 C-22.44 3.67 -11.88 3.34 -1 3 C-0.67 2.01 -0.34 1.02 0 0 Z " fill="#93A19F" transform="translate(273,211)"/>
<path d="M0 0 C13.53 0 27.06 0 41 0 C41 1.32 41 2.64 41 4 C27.635 4.495 27.635 4.495 14 5 C14 6.32 14 7.64 14 9 C16.40541929 10.20270964 18.10366591 10.20316663 20.7890625 10.31640625 C21.73007812 10.35830078 22.67109375 10.40019531 23.640625 10.44335938 C24.62546875 10.48267578 25.6103125 10.52199219 26.625 10.5625 C27.61757813 10.60568359 28.61015625 10.64886719 29.6328125 10.69335938 C32.08839838 10.79961069 34.54408703 10.90164964 37 11 C32.53761348 15.61113274 30.32048915 16.17576948 24.05664062 16.28320312 C22.69829102 16.29770508 22.69829102 16.29770508 21.3125 16.3125 C20.42626953 16.34150391 19.54003906 16.37050781 18.62695312 16.40039062 C12.53202321 16.4590391 8.93272091 15.65790083 4 12 C2.44140625 10 2.44140625 10 1.5625 8 C1.25441406 7.34 0.94632813 6.68 0.62890625 6 C0 4 0 4 0 0 Z " fill="#EEEEE9" transform="translate(246,182)"/>
<path d="M0 0 C-0.99 0.495 -0.99 0.495 -2 1 C-2.33 12.88 -2.66 24.76 -3 37 C-8.94 37.33 -14.88 37.66 -21 38 C-21.1953125 28.8203125 -21.1953125 28.8203125 -21 26 C-18.70176341 23.70176341 -18.05119118 23.70309616 -14.9375 23.4375 C-11.23263383 23.44086552 -11.23263383 23.44086552 -10 22 C-9.87981187 20.62062729 -9.82056849 19.23580295 -9.7890625 17.8515625 C-9.76070312 17.01109375 -9.73234375 16.170625 -9.703125 15.3046875 C-9.65127541 13.52624646 -9.60693526 11.74756974 -9.5703125 9.96875 C-9.52390625 8.70417969 -9.52390625 8.70417969 -9.4765625 7.4140625 C-9.45674316 6.6401416 -9.43692383 5.8662207 -9.41650391 5.06884766 C-8.33817238 -0.28741341 -4.81123619 -0.32074908 0 0 Z " fill="#95A3A1" transform="translate(249,150)"/>
<path d="M0 0 C1.65 0.33 3.3 0.66 5 1 C5 19.48 5 37.96 5 57 C2.525 57.495 2.525 57.495 0 58 C-1.70565618 56.29434382 -1.12752055 54.09266505 -1.12939453 51.76171875 C-1.13254669 50.64385986 -1.13569885 49.52600098 -1.13894653 48.37426758 C-1.1369223 47.15763428 -1.13489807 45.94100098 -1.1328125 44.6875 C-1.13376923 43.44830811 -1.13472595 42.20911621 -1.13571167 40.93237305 C-1.13639374 38.30611719 -1.13503538 35.67995367 -1.13037109 33.05371094 C-1.12467381 29.68071286 -1.12795302 26.30779435 -1.13394356 22.93479919 C-1.1384177 19.72736323 -1.13528882 16.519937 -1.1328125 13.3125 C-1.13483673 12.0958667 -1.13686096 10.8792334 -1.13894653 9.62573242 C-1.13579437 8.50787354 -1.13264221 7.39001465 -1.12939453 6.23828125 C-1.12859894 5.24868408 -1.12780334 4.25908691 -1.12698364 3.23950195 C-1 1 -1 1 0 0 Z " fill="#909E9D" transform="translate(301,163)"/>
<path d="M0 0 C1.953125 0.5546875 1.953125 0.5546875 4 2 C4.609375 5.2578125 4.609375 5.2578125 4.75 9.125 C4.80671875 10.40632812 4.8634375 11.68765625 4.921875 13.0078125 C4.94765625 13.99523437 4.9734375 14.98265625 5 16 C6.98 16.66 8.96 17.32 11 18 C11.33 19.65 11.66 21.3 12 23 C12.67804688 23.01417969 13.35609375 23.02835938 14.0546875 23.04296875 C19.36023086 23.31485948 23.29805206 23.89198851 27.9375 26.5625 C33.55276162 29.70921666 38.70887473 29.48642721 45 29 C45 29.66 45 30.32 45 31 C33.45 31 21.9 31 10 31 C9.34 29.35 8.68 27.7 8 26 C5.88606876 24.79865761 5.88606876 24.79865761 3.4375 24.25 C-0.9602649 23.0397351 -0.9602649 23.0397351 -2 22 C-2.25035974 18.69483066 -2.18521952 15.37603959 -2.1875 12.0625 C-2.19974609 11.12986328 -2.21199219 10.19722656 -2.22460938 9.23632812 C-2.22654297 8.34494141 -2.22847656 7.45355469 -2.23046875 6.53515625 C-2.23663208 5.30357788 -2.23663208 5.30357788 -2.24291992 4.04711914 C-2 2 -2 2 0 0 Z " fill="#98A6A3" transform="translate(230,216)"/>
<path d="M0 0 C1.98 0 3.96 0 6 0 C6.02505615 1.02472412 6.0501123 2.04944824 6.07592773 3.10522461 C6.16984484 6.89409676 6.27010317 10.68277881 6.37231445 14.47143555 C6.41572297 16.11364303 6.45739358 17.75589739 6.49731445 19.39819336 C6.5548744 21.75388745 6.61860892 24.10934428 6.68359375 26.46484375 C6.70030624 27.20339096 6.71701874 27.94193817 6.73423767 28.7028656 C6.53548013 32.14300627 6.53548013 32.14300627 8 35 C10.32817964 35.36760731 12.6618385 35.70241581 15 36 C15 36.33 15 36.66 15 37 C-20.64 37 -56.28 37 -93 37 C-93 36.67 -93 36.34 -93 36 C-91.31537155 35.9845388 -91.31537155 35.9845388 -89.59671021 35.96876526 C-79.03108563 35.87116003 -68.46552165 35.76843836 -57.8999958 35.66066074 C-52.46769393 35.60541222 -47.03538669 35.55198914 -41.60302734 35.50268555 C-36.36401443 35.45507046 -31.12506841 35.40272869 -25.8861351 35.34705925 C-23.88380466 35.32662274 -21.88145586 35.30791184 -19.87909317 35.29092598 C-17.08225088 35.26691065 -14.28553575 35.2368522 -11.48876953 35.20532227 C-10.65439362 35.1995668 -9.8200177 35.19381134 -8.96035767 35.18788147 C-4.84759131 35.23585365 -4.84759131 35.23585365 -1 34 C-0.67 22.78 -0.34 11.56 0 0 Z " fill="#8E9C9B" transform="translate(156,174)"/>
<path d="M0 0 C0.88602402 0.00222061 1.77204803 0.00444122 2.68492126 0.00672913 C3.68588333 0.00680466 4.6868454 0.00688019 5.71813965 0.00695801 C6.80666733 0.01211929 7.89519501 0.01728058 9.01670837 0.02259827 C10.67928932 0.02472069 10.67928932 0.02472069 12.37545776 0.02688599 C15.93168281 0.03250418 19.48784596 0.04505977 23.04405212 0.05775452 C25.44834809 0.06276717 27.85264504 0.06733048 30.25694275 0.07142639 C36.16516716 0.08247952 42.07335522 0.09923535 47.98155212 0.12025452 C48.36373979 1.77640109 48.69550314 3.44482476 48.98155212 5.12025452 C47.98155212 6.12025452 47.98155212 6.12025452 45.96310425 6.24050903 C45.07708023 6.23828842 44.19105621 6.23606781 43.27818298 6.23377991 C42.27722092 6.23370438 41.27625885 6.23362885 40.2449646 6.23355103 C39.15643692 6.22838974 38.06790924 6.22322845 36.94639587 6.21791077 C35.83800858 6.21649582 34.72962128 6.21508087 33.58764648 6.21362305 C30.03142143 6.20800485 26.47525829 6.19544926 22.91905212 6.18275452 C20.51475616 6.17774186 18.1104592 6.17317855 15.7061615 6.16908264 C9.79793709 6.15802951 3.88974903 6.14127368 -2.01844788 6.12025452 C-2.40063555 4.46410794 -2.73239889 2.79568427 -3.01844788 1.12025452 C-2.01844788 0.12025452 -2.01844788 0.12025452 0 0 Z " fill="#E7E8E1" transform="translate(256.01844787597656,251.87974548339844)"/>
<path d="M0 0 C0.79148437 -0.0033284 1.58296875 -0.0066568 2.3984375 -0.01008606 C4.07291075 -0.01515165 5.7473941 -0.0174945 7.421875 -0.01733398 C9.98975135 -0.01952252 12.55719959 -0.03768734 15.125 -0.05664062 C16.74999853 -0.05957416 18.3749991 -0.06155922 20 -0.0625 C21.15628906 -0.07327827 21.15628906 -0.07327827 22.3359375 -0.08427429 C27.7711728 -0.06085845 27.7711728 -0.06085845 30 2.16796875 C30 3.81796875 30 5.46796875 30 7.16796875 C16.47 7.16796875 2.94 7.16796875 -11 7.16796875 C-10.67 5.18796875 -10.34 3.20796875 -10 1.16796875 C-6.84665706 -0.40870272 -3.46237759 0.00499834 0 0 Z " fill="#EFEFE9" transform="translate(257,149.83203125)"/>
<path d="M0 0 C8.91 0 17.82 0 27 0 C27 0.66 27 1.32 27 2 C26.00097656 2.06058594 25.00195312 2.12117188 23.97265625 2.18359375 C22.68230469 2.26738281 21.39195313 2.35117188 20.0625 2.4375 C18.77472656 2.51871094 17.48695312 2.59992188 16.16015625 2.68359375 C13.13976043 2.64919188 13.13976043 2.64919188 12 4 C11.92680379 6.69654854 11.90757463 9.36691458 11.9375 12.0625 C11.94201172 12.82111328 11.94652344 13.57972656 11.95117188 14.36132812 C11.9629932 16.24091871 11.98092922 18.12046899 12 20 C8.04 20 4.08 20 0 20 C0 13.4 0 6.8 0 0 Z " fill="#E8E8E2" transform="translate(73,100)"/>
<path d="M0 0 C1.16660156 -0.020625 2.33320313 -0.04125 3.53515625 -0.0625 C4.64761719 -0.06765625 5.76007813 -0.0728125 6.90625 -0.078125 C7.93041016 -0.0874707 8.95457031 -0.09681641 10.00976562 -0.10644531 C10.83154297 0.01118164 11.65332031 0.12880859 12.5 0.25 C14.94897847 3.92346771 14.81537716 5.91356399 14.5 10.25 C13.84 10.91 13.18 11.57 12.5 12.25 C8.36424976 12.08456999 5.30551695 11.25455071 1.75 9.25 C-3.10944028 6.60983166 -8.05752542 6.45009098 -13.5 6.25 C-13.83 4.6 -14.16 2.95 -14.5 1.25 C-10.25811293 -0.87094354 -4.66059282 0.02059931 0 0 Z " fill="#E7E9E2" transform="translate(255.5,233.75)"/>
<path d="M0 0 C0.969375 0.165 1.93875 0.33 2.9375 0.5 C5.9052331 1.29133785 5.9052331 1.29133785 8 0 C11.67329964 -0.13357453 14.49852959 -0.1671568 18 1 C18 2.98 18 4.96 18 7 C13.66666667 7 9.33333333 7 5 7 C4.34 6.34 3.68 5.68 3 5 C3 5.66 3 6.32 3 7 C2.4225 6.814375 1.845 6.62875 1.25 6.4375 C-1.20692525 5.95976454 -2.64397534 6.24270636 -5 7 C-5 6.01 -5 5.02 -5 4 C-5.33 4.99 -5.66 5.98 -6 7 C-8.31 7 -10.62 7 -13 7 C-13.33 6.01 -13.66 5.02 -14 4 C-14.33 4.99 -14.66 5.98 -15 7 C-15.99 5.68 -16.98 4.36 -18 3 C-18 4.32 -18 5.64 -18 7 C-21.3 7 -24.6 7 -28 7 C-28.33 5.02 -28.66 3.04 -29 1 C-27.73555054 1.00785522 -27.73555054 1.00785522 -26.44555664 1.01586914 C-23.32772064 1.03287826 -20.20990823 1.04543406 -17.09204102 1.05493164 C-15.74079614 1.05997057 -14.38955674 1.06680177 -13.03833008 1.07543945 C-11.09979566 1.08752419 -9.161222 1.09269828 -7.22265625 1.09765625 C-6.05484619 1.10289307 -4.88703613 1.10812988 -3.68383789 1.11352539 C-1.08108449 1.30661495 -1.08108449 1.30661495 0 0 Z " fill="#323D52" transform="translate(422,347)"/>
<path d="M0 0 C4.75043029 1.84738956 4.75043029 1.84738956 6.69921875 3.0390625 C10.51715362 4.6336499 14.50554413 4.43294679 18.59960938 4.56640625 C22.2386122 4.73263677 23.89066435 4.92710957 27 7 C26.67 8.32 26.34 9.64 26 11 C21.89596637 11.08694042 17.79216871 11.14037149 13.6875 11.1875 C11.93663086 11.22520508 11.93663086 11.22520508 10.15039062 11.26367188 C9.03212891 11.27333984 7.91386719 11.28300781 6.76171875 11.29296875 C5.73006592 11.3086792 4.69841309 11.32438965 3.63549805 11.34057617 C1 11 1 11 -0.84057617 9.6730957 C-2.61804571 7.10813493 -2.32215812 5.02828635 -2 2 C-1.34 1.34 -0.68 0.68 0 0 Z " fill="#E8E9E2" transform="translate(242,199)"/>
<path d="M0 0 C2.64590014 -0.02684679 5.29153096 -0.04676357 7.9375 -0.0625 C8.69224609 -0.07087891 9.44699219 -0.07925781 10.22460938 -0.08789062 C12.14994313 -0.09652441 14.07535581 -0.05224333 16 0 C17.89128342 1.89128342 17.2366852 4.57067726 17.328125 7.08984375 C17.21984375 7.72019531 17.1115625 8.35054687 17 9 C14 11 14 11 11.125 10.8125 C6.71973697 9.66713161 2.80010002 7.68434213 0 4 C0 2.68 0 1.36 0 0 Z " fill="#E5E6E0" transform="translate(277,235)"/>
<path d="M0 0 C1.953125 0.5546875 1.953125 0.5546875 4 2 C4.609375 5.2578125 4.609375 5.2578125 4.75 9.125 C4.80671875 10.40632812 4.8634375 11.68765625 4.921875 13.0078125 C4.94765625 13.99523437 4.9734375 14.98265625 5 16 C6.98 16.66 8.96 17.32 11 18 C10.67 19.32 10.34 20.64 10 22 C8.18818595 22.19401633 6.37551468 22.38004375 4.5625 22.5625 C3.55316406 22.66691406 2.54382813 22.77132812 1.50390625 22.87890625 C0.67761719 22.91886719 -0.14867187 22.95882812 -1 23 C-3.30009773 20.69990227 -2.18537365 15.15209334 -2.1875 12.0625 C-2.19974609 11.12986328 -2.21199219 10.19722656 -2.22460938 9.23632812 C-2.22654297 8.34494141 -2.22847656 7.45355469 -2.23046875 6.53515625 C-2.23663208 5.30357788 -2.23663208 5.30357788 -2.24291992 4.04711914 C-2 2 -2 2 0 0 Z " fill="#919F9E" transform="translate(230,216)"/>
<path d="M0 0 C9.24 0 18.48 0 28 0 C27.67 1.65 27.34 3.3 27 5 C18.42 5 9.84 5 1 5 C0.67 3.35 0.34 1.7 0 0 Z " fill="#E6E8E1" transform="translate(73,121)"/>
<path d="M0 0 C11.22 0 22.44 0 34 0 C34 1.32 34 2.64 34 4 C22.78 4 11.56 4 0 4 C0 2.68 0 1.36 0 0 Z " fill="#9AA7A4" transform="translate(241,219)"/>
<path d="M0 0 C1.32 0.66 2.64 1.32 4 2 C4 8.6 4 15.2 4 22 C2.02 22.99 2.02 22.99 0 24 C-2.44986932 21.55013068 -2.25631311 20.862922 -2.265625 17.5 C-2.26820313 16.613125 -2.27078125 15.72625 -2.2734375 14.8125 C-2.26183594 13.4203125 -2.26183594 13.4203125 -2.25 12 C-2.25773437 11.071875 -2.26546875 10.14375 -2.2734375 9.1875 C-2.27085937 8.300625 -2.26828125 7.41375 -2.265625 6.5 C-2.26336914 5.6853125 -2.26111328 4.870625 -2.25878906 4.03125 C-2 2 -2 2 0 0 Z " fill="#8E9C9B" transform="translate(338,222)"/>
<path d="M0 0 C1.32 0 2.64 0 4 0 C4 0.66 4 1.32 4 2 C10.27 2 16.54 2 23 2 C23 3.32 23 4.64 23 6 C17.06 6 11.12 6 5 6 C4.67 7.32 4.34 8.64 4 10 C2.68 10 1.36 10 0 10 C-1 9 -1 9 -1.125 5.5625 C-1 2 -1 2 0 0 Z " fill="#E7E8E0" transform="translate(253,163)"/>
<path d="M0 0 C2.78474922 0.48898663 5.55237107 0.5981763 8.375 0.6875 C9.11105469 0.72166016 9.84710938 0.75582031 10.60546875 0.79101562 C12.40313853 0.87272789 14.20154046 0.93805781 16 1 C16 1.33 16 1.66 16 2 C15.0713916 2.01981934 14.1427832 2.03963867 13.18603516 2.06005859 C9.7454948 2.13808613 6.30540109 2.22477462 2.86523438 2.31738281 C1.37541111 2.35569998 -0.11450554 2.39054808 -1.60449219 2.421875 C-3.74448048 2.46746729 -5.88382436 2.52546874 -8.0234375 2.5859375 C-9.31169434 2.6173584 -10.59995117 2.6487793 -11.92724609 2.68115234 C-15.10481505 2.68458268 -15.10481505 2.68458268 -17 5 C-19.6015625 5.1953125 -19.6015625 5.1953125 -22.625 5.125 C-24.12933594 5.09792969 -24.12933594 5.09792969 -25.6640625 5.0703125 C-26.43492187 5.04710937 -27.20578125 5.02390625 -28 5 C-28 4.67 -28 4.34 -28 4 C-23.545 3.505 -23.545 3.505 -19 3 C-21.97 2.67 -24.94 2.34 -28 2 C-28 0.68 -28 -0.64 -28 -2 C-24.45976126 -2.25646743 -20.91814398 -2.4752688 -17.375 -2.6875 C-15.87646484 -2.79674805 -15.87646484 -2.79674805 -14.34765625 -2.90820312 C-8.49884898 -3.23744062 -5.20291332 -2.8905074 0 0 Z " fill="#A4B1AD" transform="translate(257,197)"/>
<path d="M0 0 C1.18722656 -0.00855011 1.18722656 -0.00855011 2.3984375 -0.01727295 C4.07290305 -0.02672318 5.74738721 -0.03325703 7.421875 -0.03710938 C9.98991007 -0.04683678 12.55715213 -0.07786766 15.125 -0.109375 C16.74999524 -0.11590285 18.3749962 -0.12115418 20 -0.125 C20.77085937 -0.1373468 21.54171875 -0.1496936 22.3359375 -0.16241455 C24.5 -0.15332031 24.5 -0.15332031 28 0.203125 C28.66 1.193125 29.32 2.183125 30 3.203125 C16.8 3.203125 3.6 3.203125 -10 3.203125 C-10 2.543125 -10 1.883125 -10 1.203125 C-6.84780781 -0.37297109 -3.46214526 0.01908739 0 0 Z " fill="#E3E5DE" transform="translate(257,149.796875)"/>
<path d="M0 0 C-0.99 0.495 -0.99 0.495 -2 1 C-2.33 6.94 -2.66 12.88 -3 19 C-4.98 19 -6.96 19 -9 19 C-9.0809313 16.39521117 -9.14045434 13.79293347 -9.1875 11.1875 C-9.22520508 10.08051758 -9.22520508 10.08051758 -9.26367188 8.95117188 C-9.33747625 3.51424953 -9.33747625 3.51424953 -7.6875 1 C-5.14645011 -0.50580734 -2.88224911 -0.19214994 0 0 Z " fill="#95A2A1" transform="translate(249,150)"/>
<path d="M0 0 C1.98 0 3.96 0 6 0 C6 2.31 6 4.62 6 7 C4.02 7 2.04 7 0 7 C0 9.64 0 12.28 0 15 C-0.66 15 -1.32 15 -2 15 C-2 15.66 -2 16.32 -2 17 C-3.32 16.34 -4.64 15.68 -6 15 C-6 12.36 -6 9.72 -6 7 C-6.99 6.67 -7.98 6.34 -9 6 C-8.15115234 5.72736328 -8.15115234 5.72736328 -7.28515625 5.44921875 C-6.55167969 5.19785156 -5.81820312 4.94648438 -5.0625 4.6875 C-3.96615234 4.32205078 -3.96615234 4.32205078 -2.84765625 3.94921875 C-0.64067976 3.08759559 -0.64067976 3.08759559 0 0 Z " fill="#99A7A4" transform="translate(240,169)"/>
<path d="M0 0 C0.33 0.66 0.66 1.32 1 2 C3.58774327 3.51695295 6.07471973 4.37315423 9 5 C9.33 4.01 9.66 3.02 10 2 C10.66 2 11.32 2 12 2 C12.33 1.34 12.66 0.68 13 0 C13 4.29 13 8.58 13 13 C11 12 11 12 10 9 C9.896875 9.639375 9.79375 10.27875 9.6875 10.9375 C9.460625 11.618125 9.23375 12.29875 9 13 C8.01 13.33 7.02 13.66 6 14 C5 12 5 12 5 11 C4.67 10.34 4.34 9.68 4 9 C4 10.32 4 11.64 4 13 C3.01 13.33 2.02 13.66 1 14 C0 13 0 13 -0.09765625 10.05859375 C-0.08605469 8.86363281 -0.07445312 7.66867187 -0.0625 6.4375 C-0.05347656 5.23996094 -0.04445313 4.04242188 -0.03515625 2.80859375 C-0.02355469 1.88175781 -0.01195312 0.95492188 0 0 Z " fill="#333E53" transform="translate(461,341)"/>
<path d="M0 0 C9.9 0 19.8 0 30 0 C25.17393066 4.82606934 21.71441964 4.21320271 15.1875 4.25 C14.28451172 4.270625 13.38152344 4.29125 12.45117188 4.3125 C7.50698302 4.34156209 3.98314955 4.30676566 0 1 C0 0.67 0 0.34 0 0 Z " fill="#E3E5DE" transform="translate(252,194)"/>
<path d="M0 0 C16.5 0 33 0 50 0 C50.495 1.485 50.495 1.485 51 3 C42.75 3 34.5 3 26 3 C26 2.34 26 1.68 26 1 C17.42 1 8.84 1 0 1 C0 0.67 0 0.34 0 0 Z " fill="#DEE1D9" transform="translate(254,252)"/>
<path d="M0 0 C0.99 0.33 1.98 0.66 3 1 C6.78706732 1 10.26513121 0.5745952 14 0 C15.125 4.75 15.125 4.75 14 7 C12.88625 6.979375 11.7725 6.95875 10.625 6.9375 C7.16784079 6.73619282 7.16784079 6.73619282 5 8 C2.6505947 7.39239518 0.31470912 6.72870472 -2 6 C-2 4.35 -2 2.7 -2 1 C-1.34 0.67 -0.68 0.34 0 0 Z " fill="#313C52" transform="translate(445,347)"/>
<path d="M0 0 C1.93166016 0.01740234 1.93166016 0.01740234 3.90234375 0.03515625 C5.19269531 0.04417969 6.48304688 0.05320313 7.8125 0.0625 C8.81152344 0.07410156 9.81054688 0.08570313 10.83984375 0.09765625 C11.46484375 1.97265625 11.46484375 1.97265625 11.83984375 4.09765625 C9.83984375 6.09765625 9.83984375 6.09765625 6.80078125 6.29296875 C5.61742187 6.26976562 4.4340625 6.2465625 3.21484375 6.22265625 C2.02632813 6.20460937 0.8378125 6.1865625 -0.38671875 6.16796875 C-1.30195313 6.14476562 -2.2171875 6.1215625 -3.16015625 6.09765625 C-3.54234392 4.44150968 -3.87410727 2.77308601 -4.16015625 1.09765625 C-3.16015625 0.09765625 -3.16015625 0.09765625 0 0 Z " fill="#97A5A3" transform="translate(263.16015625,185.90234375)"/>
<path d="M0 0 C2.81256281 -0.02684312 5.62487241 -0.04676188 8.4375 -0.0625 C9.23994141 -0.07087891 10.04238281 -0.07925781 10.86914062 -0.08789062 C12.91295221 -0.0965143 14.95683902 -0.0522815 17 0 C17.33 0.33 17.66 0.66 18 1 C20.18292774 1.23481693 22.37203174 1.41363323 24.5625 1.5625 C25.76003906 1.64628906 26.95757812 1.73007813 28.19140625 1.81640625 C29.11824219 1.87699219 30.04507812 1.93757812 31 2 C31 2.33 31 2.66 31 3 C26.05 3 21.1 3 16 3 C16 4.32 16 5.64 16 7 C13.69 7 11.38 7 9 7 C8.814375 6.38125 8.62875 5.7625 8.4375 5.125 C6.28562767 1.94397134 3.62466237 1.80548053 0 1 C0 0.67 0 0.34 0 0 Z " fill="#A0ACA9" transform="translate(261,232)"/>
<path d="M0 0 C8.58 0 17.16 0 26 0 C26.33 0.99 26.66 1.98 27 3 C17.76 3 8.52 3 -1 3 C-0.67 2.01 -0.34 1.02 0 0 Z " fill="#E1E3DD" transform="translate(74,96)"/>
<path d="M0 0 C1.32 0.66 2.64 1.32 4 2 C4 4.64 4 7.28 4 10 C2.02 10.99 2.02 10.99 0 12 C-2 10 -2 10 -2.265625 8.125 C-2.26046875 7.42375 -2.2553125 6.7225 -2.25 6 C-2.25515625 5.29875 -2.2603125 4.5975 -2.265625 3.875 C-2 2 -2 2 0 0 Z " fill="#283347" transform="translate(350,228)"/>
<path d="M0 0 C0 0.33 0 0.66 0 1 C-8.91 0.67 -17.82 0.34 -27 0 C-27 -0.66 -27 -1.32 -27 -2 C-23.43889325 -2.25586913 -19.87643455 -2.47496153 -16.3125 -2.6875 C-15.30509766 -2.76033203 -14.29769531 -2.83316406 -13.25976562 -2.90820312 C-3.89164803 -3.43380708 -3.89164803 -3.43380708 0 0 Z " fill="#9AA7A4" transform="translate(256,197)"/>
<path d="M0 0 C1.65 0 3.3 0 5 0 C5 3.96 5 7.92 5 12 C3.68 12 2.36 12 1 12 C0.03929566 9.11788698 -0.10581883 7.30149956 -0.0625 4.3125 C-0.05347656 3.50425781 -0.04445312 2.69601563 -0.03515625 1.86328125 C-0.02355469 1.24839844 -0.01195312 0.63351563 0 0 Z " fill="#98A5A3" transform="translate(48,153)"/>
<path d="M0 0 C1.67542976 0.28604898 3.34385343 0.61781233 5 1 C5.25 7.625 5.25 7.625 3 11 C2.01 10.67 1.02 10.34 0 10 C-1.49106457 7.01787087 -1.11941467 4.28390342 -1 1 C-0.67 0.67 -0.34 0.34 0 0 Z " fill="#93A1A0" transform="translate(319,247)"/>
<path d="M0 0 C1.32 0.66 2.64 1.32 4 2 C4.125 8.75 4.125 8.75 3 11 C1.68 11 0.36 11 -1 11 C-2.50662097 7.98675805 -2.17770373 5.31713623 -2 2 C-1.34 1.34 -0.68 0.68 0 0 Z " fill="#8E9C9B" transform="translate(356,228)"/>
<path d="M0 0 C1.32 0 2.64 0 4 0 C5.4783226 2.95664519 5.06032783 5.74229737 5 9 C3.02 9.99 3.02 9.99 1 11 C-1 9 -1 9 -1.1875 5.5 C-1 2 -1 2 0 0 Z " fill="#96A4A2" transform="translate(253,163)"/>
<path d="M0 0 C2.64 0 5.28 0 8 0 C8 0.66 8 1.32 8 2 C8.66 2.33 9.32 2.66 10 3 C9.01 4.485 9.01 4.485 8 6 C6.0546875 6.29296875 6.0546875 6.29296875 3.875 6.1875 C2.59625 6.125625 1.3175 6.06375 0 6 C-1.125 2.25 -1.125 2.25 0 0 Z " fill="#1E2538" transform="translate(170,324)"/>
<path d="M0 0 C1.32 0 2.64 0 4 0 C5.4783226 2.95664519 5.06032783 5.74229737 5 9 C4.34 9 3.68 9 3 9 C3 9.66 3 10.32 3 11 C1.68 10.34 0.36 9.68 -1 9 C-1.125 2.25 -1.125 2.25 0 0 Z " fill="#E8EAE2" transform="translate(235,175)"/>
<path d="M0 0 C0.33 0 0.66 0 1 0 C1 3.63 1 7.26 1 11 C0.67 11 0.34 11 0 11 C0 9.35 0 7.7 0 6 C-3.63 6 -7.26 6 -11 6 C-11.33 7.32 -11.66 8.64 -12 10 C-13.32 10 -14.64 10 -16 10 C-16 6 -16 6 -15 5 C-13.15108054 4.76636119 -11.29511969 4.58696365 -9.4375 4.4375 C-8.42558594 4.35371094 -7.41367188 4.26992187 -6.37109375 4.18359375 C-5.58863281 4.12300781 -4.80617187 4.06242188 -4 4 C-4 3.34 -4 2.68 -4 2 C-2.68 2 -1.36 2 0 2 C0 1.34 0 0.68 0 0 Z " fill="#20273B" transform="translate(149,127)"/>
<path d="M0 0 C1.32 0 2.64 0 4 0 C5.38550197 2.77100394 5.1877467 4.9334706 5 8 C4.01 9.485 4.01 9.485 3 11 C2.01 10.67 1.02 10.34 0 10 C-1.36952673 7.26094655 -1.12621361 5.02912668 -1 2 C-0.67 1.34 -0.34 0.68 0 0 Z " fill="#99A6A4" transform="translate(277,163)"/>
<path d="M0 0 C4.29 0 8.58 0 13 0 C12.67 1.32 12.34 2.64 12 4 C8.37 4.33 4.74 4.66 1 5 C0.67 3.35 0.34 1.7 0 0 Z " fill="#E5E6DF" transform="translate(247,186)"/>
<path d="M0 0 C0.33 0 0.66 0 1 0 C1.33 4.29 1.66 8.58 2 13 C2.99 13 3.98 13 5 13 C5.33 14.32 5.66 15.64 6 17 C5.01 17.33 4.02 17.66 3 18 C2.34 17.67 1.68 17.34 1 17 C1 18.32 1 19.64 1 21 C2.32 21.33 3.64 21.66 5 22 C3.68 22 2.36 22 1 22 C1 23.98 1 25.96 1 28 C0.67 28 0.34 28 0 28 C0 18.76 0 9.52 0 0 Z " fill="#425062" transform="translate(42,173)"/>
<path d="M0 0 C0.33 0.99 0.66 1.98 1 3 C3.01508358 3.73323796 3.01508358 3.73323796 5 4 C3.68 4 2.36 4 1 4 C1 4.66 1 5.32 1 6 C2.98 6.495 2.98 6.495 5 7 C3.68 7 2.36 7 1 7 C1 8.32 1 9.64 1 11 C2.98 11.495 2.98 11.495 5 12 C3.68 12 2.36 12 1 12 C1.33 12.99 1.66 13.98 2 15 C2.99 15.33 3.98 15.66 5 16 C4.67 16.99 4.34 17.98 4 19 C2.68 18.34 1.36 17.68 0 17 C0 11.39 0 5.78 0 0 Z " fill="#8B9999" transform="translate(48,191)"/>
<path d="M0 0 C1.65 0 3.3 0 5 0 C5 2.64 5 5.28 5 8 C3.35 8 1.7 8 0 8 C0 5.36 0 2.72 0 0 Z " fill="#EBECE5" transform="translate(282,162)"/>
<path d="M0 0 C3.3 0 6.6 0 10 0 C10 1.32 10 2.64 10 4 C6.7 4 3.4 4 0 4 C0 2.68 0 1.36 0 0 Z " fill="#EFEFE9" transform="translate(73,111)"/>
<path d="M0 0 C0.33 0.99 0.66 1.98 1 3 C0.34 3.66 -0.32 4.32 -1 5 C-5.09176955 4.69690596 -8.46165096 4.12300942 -12 2 C-12 1.67 -12 1.34 -12 1 C-6.06 0.505 -6.06 0.505 0 0 Z " fill="#E0E2DC" transform="translate(269,241)"/>
<path d="M0 0 C6.27 0 12.54 0 19 0 C21 4 21 4 21 7 C19.68 6.67 18.36 6.34 17 6 C17 5.01 17 4.02 17 3 C13.95786733 1.47893366 10.71952428 1.62570662 7.375 1.4375 C6.66859375 1.39431641 5.9621875 1.35113281 5.234375 1.30664062 C3.48981463 1.20055249 1.74493303 1.09977111 0 1 C0 0.67 0 0.34 0 0 Z " fill="#A1AEAB" transform="translate(251,203)"/>
<path d="M0 0 C1.98 0 3.96 0 6 0 C5.67 2.31 5.34 4.62 5 7 C3.68 7 2.36 7 1 7 C0.67 4.69 0.34 2.38 0 0 Z " fill="#95A2A0" transform="translate(300,203)"/>
<path d="M0 0 C1.65 0 3.3 0 5 0 C5 2.31 5 4.62 5 7 C3.35 7 1.7 7 0 7 C0 4.69 0 2.38 0 0 Z " fill="#94A2A0" transform="translate(156,166)"/>
<path d="M0 0 C3.3 0 6.6 0 10 0 C10 0.66 10 1.32 10 2 C10.66 2.66 11.32 3.32 12 4 C8.04 4 4.08 4 0 4 C0 2.68 0 1.36 0 0 Z " fill="#F2F2EC" transform="translate(73,116)"/>
<path d="M0 0 C1.65 0 3.3 0 5 0 C5 2.31 5 4.62 5 7 C3.35 7 1.7 7 0 7 C0 4.69 0 2.38 0 0 Z " fill="#98A5A3" transform="translate(48,108)"/>
<path d="M0 0 C1.67542976 0.28604898 3.34385343 0.61781233 5 1 C5 1.99 5 2.98 5 4 C3.35 4 1.7 4 0 4 C-0.33 5.32 -0.66 6.64 -1 8 C-1.04241723 5.66705225 -1.04092937 3.33297433 -1 1 C-0.67 0.67 -0.34 0.34 0 0 Z " fill="#8B999A" transform="translate(319,247)"/>
<path d="M0 0 C1.98 0 3.96 0 6 0 C6 1.32 6 2.64 6 4 C4.02 4 2.04 4 0 4 C0 2.68 0 1.36 0 0 Z " fill="#97A5A3" transform="translate(228,227)"/>
<path d="M0 0 C1.98 0 3.96 0 6 0 C5.67 1.32 5.34 2.64 5 4 C3.68 4 2.36 4 1 4 C0.67 2.68 0.34 1.36 0 0 Z " fill="#A0ADAA" transform="translate(252,169)"/>
<path d="M0 0 C1.32 0.66 2.64 1.32 4 2 C3.34 3.32 2.68 4.64 2 6 C0.68 5.34 -0.64 4.68 -2 4 C-1.34 2.68 -0.68 1.36 0 0 Z " fill="#3C495A" transform="translate(134,132)"/>
<path d="M0 0 C1.98 0 3.96 0 6 0 C6 0.99 6 1.98 6 3 C5.34 3 4.68 3 4 3 C4 3.66 4 4.32 4 5 C2.68 4.34 1.36 3.68 0 3 C0 2.01 0 1.02 0 0 Z " fill="#DFE2DB" transform="translate(234,181)"/>
<path d="M0 0 C1.65 0 3.3 0 5 0 C4 3 4 3 2 4 C0.00039988 4.039992 -2.00047242 4.04346799 -4 4 C-3.01 3.67 -2.02 3.34 -1 3 C-0.67 2.01 -0.34 1.02 0 0 Z " fill="#4E5D6C" transform="translate(151,206)"/>
<path d="M0 0 C1.65 0.33 3.3 0.66 5 1 C4.34 2.32 3.68 3.64 3 5 C1.68 4.34 0.36 3.68 -1 3 C-0.67 2.01 -0.34 1.02 0 0 Z " fill="#3D4A5C" transform="translate(91,187)"/>
<path d="M0 0 C1.65 0 3.3 0 5 0 C5 1.32 5 2.64 5 4 C3.02 4 1.04 4 -1 4 C-0.67 2.68 -0.34 1.36 0 0 Z " fill="#99A6A4" transform="translate(337,235)"/>
<path d="M0 0 C1.65 0 3.3 0 5 0 C5 1.32 5 2.64 5 4 C3.02 4 1.04 4 -1 4 C-0.67 2.68 -0.34 1.36 0 0 Z " fill="#99A6A4" transform="translate(49,116)"/>
<path d="M0 0 C1.65 0 3.3 0 5 0 C5 1.32 5 2.64 5 4 C3.35 4 1.7 4 0 4 C0 2.68 0 1.36 0 0 Z " fill="#99A6A4" transform="translate(270,240)"/>
<path d="M0 0 C1.65 0 3.3 0 5 0 C5 1.32 5 2.64 5 4 C3.35 4 1.7 4 0 4 C0 2.68 0 1.36 0 0 Z " fill="#99A6A4" transform="translate(337,227)"/>
<path d="M0 0 C1.32 0 2.64 0 4 0 C4 1.65 4 3.3 4 5 C2.68 5 1.36 5 0 5 C0 3.35 0 1.7 0 0 Z " fill="#96A3A2" transform="translate(301,216)"/>
<path d="M0 0 C1.65 0 3.3 0 5 0 C5 1.32 5 2.64 5 4 C3.35 4 1.7 4 0 4 C0 2.68 0 1.36 0 0 Z " fill="#99A6A5" transform="translate(301,190)"/>
<path d="M0 0 C1.65 0 3.3 0 5 0 C5 1.32 5 2.64 5 4 C3.35 4 1.7 4 0 4 C0 2.68 0 1.36 0 0 Z " fill="#9AA6A4" transform="translate(48,182)"/>
<path d="M0 0 C1.65 0 3.3 0 5 0 C5 1.32 5 2.64 5 4 C3.35 4 1.7 4 0 4 C0 2.68 0 1.36 0 0 Z " fill="#99A6A4" transform="translate(301,169)"/>
<path d="M0 0 C1.65 0 3.3 0 5 0 C5 1.32 5 2.64 5 4 C3.35 4 1.7 4 0 4 C0 2.68 0 1.36 0 0 Z " fill="#99A7A4" transform="translate(48,145)"/>
<path d="M0 0 C1.65 0 3.3 0 5 0 C5 1.32 5 2.64 5 4 C3.35 4 1.7 4 0 4 C0 2.68 0 1.36 0 0 Z " fill="#99A6A4" transform="translate(48,140)"/>
<path d="M0 0 C1.65 0 3.3 0 5 0 C5 1.32 5 2.64 5 4 C3.35 4 1.7 4 0 4 C0 2.68 0 1.36 0 0 Z " fill="#9AA7A4" transform="translate(49,79)"/>
<path d="M0 0 C0.99 0.66 1.98 1.32 3 2 C2 3 2 3 -1.16015625 3.09765625 C-3.09181641 3.08025391 -3.09181641 3.08025391 -5.0625 3.0625 C-6.35285156 3.05347656 -7.64320313 3.04445312 -8.97265625 3.03515625 C-9.97167969 3.02355469 -10.97070312 3.01195312 -12 3 C-12 2.67 -12 2.34 -12 2 C-11.21753906 1.93941406 -10.43507813 1.87882813 -9.62890625 1.81640625 C-8.61699219 1.73261719 -7.60507812 1.64882812 -6.5625 1.5625 C-5.55316406 1.48128906 -4.54382813 1.40007812 -3.50390625 1.31640625 C-1.06359221 1.26788532 -1.06359221 1.26788532 0 0 Z " fill="#DBDED8" transform="translate(274,190)"/>
<path d="M0 0 C1.65 0 3.3 0 5 0 C4.67 1.32 4.34 2.64 4 4 C2.68 4 1.36 4 0 4 C0 2.68 0 1.36 0 0 Z " fill="#95A3A1" transform="translate(355,235)"/>
<path d="M0 0 C1.65 0 3.3 0 5 0 C5.33 1.32 5.66 2.64 6 4 C4.35 4 2.7 4 1 4 C0.67 2.68 0.34 1.36 0 0 Z " fill="#9BA8A5" transform="translate(156,161)"/>
<path d="M0 0 C2.475 0.495 2.475 0.495 5 1 C4.67 1.99 4.34 2.98 4 4 C2.68 4 1.36 4 0 4 C0 2.68 0 1.36 0 0 Z " fill="#404D60" transform="translate(115,151)"/>
<path d="M0 0 C-0.99 0.495 -0.99 0.495 -2 1 C-2 1.66 -2 2.32 -2 3 C-3.98 3 -5.96 3 -8 3 C-8 2.34 -8 1.68 -8 1 C-5.29120665 -0.35439668 -2.99066732 -0.06501451 0 0 Z " fill="#8E9C9C" transform="translate(249,150)"/>
<path d="M0 0 C1.65 0 3.3 0 5 0 C5.33 1.32 5.66 2.64 6 4 C4.35 4 2.7 4 1 4 C0.67 2.68 0.34 1.36 0 0 Z " fill="#9AA7A5" transform="translate(48,87)"/>
<path d="M0 0 C3 3.625 3 3.625 3 7 C1.68 6.67 0.36 6.34 -1 6 C-1.042721 4.33388095 -1.04063832 2.66617115 -1 1 C-0.67 0.67 -0.34 0.34 0 0 Z " fill="#99A6A4" transform="translate(269,203)"/>
<path d="M0 0 C1.65 0 3.3 0 5 0 C4.67 1.32 4.34 2.64 4 4 C2.68 4 1.36 4 0 4 C0 2.68 0 1.36 0 0 Z " fill="#9BA8A6" transform="translate(301,206)"/>
<path d="M0 0 C0.66 0 1.32 0 2 0 C1.67 0.99 1.34 1.98 1 3 C-2.63 3 -6.26 3 -10 3 C-10 2.67 -10 2.34 -10 2 C-9.04287109 1.90912109 -9.04287109 1.90912109 -8.06640625 1.81640625 C-6.82697266 1.69072266 -6.82697266 1.69072266 -5.5625 1.5625 C-4.73878906 1.48128906 -3.91507813 1.40007812 -3.06640625 1.31640625 C-1.01337975 1.21069185 -1.01337975 1.21069185 0 0 Z " fill="#9DAAA7" transform="translate(239,199)"/>
<path d="M0 0 C1.32 0 2.64 0 4 0 C4.33 1.32 4.66 2.64 5 4 C3.35 4 1.7 4 0 4 C0 2.68 0 1.36 0 0 Z " fill="#9BA8A6" transform="translate(301,182)"/>
<path d="M0 0 C1.32 0 2.64 0 4 0 C4.33 1.32 4.66 2.64 5 4 C3.35 4 1.7 4 0 4 C0 2.68 0 1.36 0 0 Z " fill="#9BA8A6" transform="translate(301,174)"/>
<path d="M0 0 C1.32 0 2.64 0 4 0 C4 1.32 4 2.64 4 4 C2.35 4 0.7 4 -1 4 C-0.67 2.68 -0.34 1.36 0 0 Z " fill="#9BA8A6" transform="translate(157,169)"/>
<path d="M0 0 C1.32 0 2.64 0 4 0 C4 1.32 4 2.64 4 4 C2.35 4 0.7 4 -1 4 C-0.67 2.68 -0.34 1.36 0 0 Z " fill="#9CA9A6" transform="translate(49,132)"/>
<path d="M0 0 C1.32 0 2.64 0 4 0 C4 1.32 4 2.64 4 4 C2.35 4 0.7 4 -1 4 C-0.67 2.68 -0.34 1.36 0 0 Z " fill="#9BA9A6" transform="translate(157,124)"/>
<path d="M0 0 C1.32 0 2.64 0 4 0 C4.33 1.32 4.66 2.64 5 4 C3.35 4 1.7 4 0 4 C0 2.68 0 1.36 0 0 Z " fill="#9BA8A6" transform="translate(157,116)"/>
<path d="M0 0 C1.32 0 2.64 0 4 0 C4.33 1.32 4.66 2.64 5 4 C3.35 4 1.7 4 0 4 C0 2.68 0 1.36 0 0 Z " fill="#9BA8A6" transform="translate(157,108)"/>
</svg>
